<?xml version="1.0" standalone="no"?>
<!DOCTYPE svg PUBLIC "-//W3C//DTD SVG 20010904//EN"
 "http://www.w3.org/TR/2001/REC-SVG-20010904/DTD/svg10.dtd">
<svg version="1.0" xmlns="http://www.w3.org/2000/svg"
 width="800.000000pt" height="541.000000pt" viewBox="0 0 800.000000 541.000000"
 preserveAspectRatio="xMidYMid meet">

<g transform="translate(0.000000,541.000000) scale(0.100000,-0.100000)"
fill="#000000" stroke="none">
<path d="M1650 4490 c-262 -16 -505 -118 -678 -284 -85 -81 -136 -151 -182
-250 -71 -151 -71 -153 -68 -956 l3 -715 28 -80 c16 -44 42 -105 59 -135 142
-256 436 -437 781 -480 53 -6 677 -10 1759 -10 923 0 1678 -3 1678 -7 0 -4
-46 -169 -102 -367 -97 -343 -100 -359 -83 -372 10 -8 22 -14 26 -14 4 0 175
170 379 379 l372 378 221 6 c281 8 393 31 570 118 207 103 371 268 444 451 53
131 54 143 51 922 l-3 721 -27 75 c-47 132 -95 207 -203 316 -105 105 -187
162 -313 214 -108 46 -246 79 -367 89 -129 11 -4176 12 -4345 1z m4523 -102
c328 -91 564 -297 643 -564 16 -53 18 -124 22 -734 2 -473 0 -699 -8 -755 -44
-306 -303 -558 -665 -649 -96 -24 -249 -37 -415 -35 l-155 1 -329 -333 c-180
-184 -325 -325 -322 -315 4 11 45 154 92 319 65 231 82 302 73 313 -9 11 -290
14 -1763 17 -1858 4 -1791 2 -1949 53 -113 36 -175 65 -262 124 -180 121 -290
277 -330 468 -22 100 -21 1385 0 1487 21 102 92 238 164 317 142 155 334 258
556 298 95 18 208 18 2325 17 l2225 -2 98 -27z"/>
<path d="M5665 3807 c-62 -29 -98 -79 -120 -164 -14 -53 -16 -127 -13 -515 3
-443 3 -454 25 -509 25 -60 71 -111 118 -129 52 -20 139 -15 187 12 92 50 128
153 128 366 l0 123 -72 -3 -73 -3 -5 -130 c-3 -78 -10 -139 -18 -152 -14 -26
-51 -38 -86 -29 -48 12 -51 38 -51 486 0 380 2 418 18 443 34 53 106 44 127
-16 5 -16 10 -72 10 -123 l0 -94 76 0 77 0 -5 128 c-4 96 -11 140 -27 183 -49
129 -174 182 -296 126z"/>
<path d="M2144 3811 c-2 -2 -4 -46 -4 -98 l0 -93 80 0 80 0 0 -565 0 -565 80
0 80 0 0 565 0 565 80 0 80 0 0 95 0 94 -236 3 c-130 2 -238 1 -240 -1z"/>
<path d="M1267 3668 c-10 -79 -29 -235 -42 -348 -40 -333 -84 -700 -91 -767
l-7 -63 71 0 70 0 6 43 c3 23 8 67 11 97 12 109 3 101 108 98 l92 -3 8 -75 c4
-41 10 -94 13 -117 l5 -43 79 0 80 0 -5 28 c-3 15 -18 146 -35 292 -17 146
-37 319 -45 385 -8 66 -26 217 -40 335 -14 118 -28 230 -31 248 l-5 32 -113 0
-112 0 -17 -142z m133 -161 c0 -18 13 -154 30 -302 16 -149 30 -276 30 -282 0
-9 -21 -13 -71 -13 l-72 0 5 48 c37 359 64 582 70 582 5 0 8 -15 8 -33z"/>
<path d="M1640 3715 l0 -95 80 0 80 0 0 -565 0 -565 80 0 80 0 0 565 0 565 80
0 80 0 0 95 0 95 -240 0 -240 0 0 -95z"/>
<path d="M2680 3150 l0 -660 215 0 215 0 0 95 0 95 -135 0 -135 0 0 195 0 195
105 0 105 0 0 95 0 95 -105 0 -105 0 0 180 0 179 133 3 132 3 3 93 3 92 -216
0 -215 0 0 -660z"/>
<path d="M3200 3150 l0 -660 70 0 70 0 2 462 3 462 88 -444 c49 -245 91 -453
93 -462 5 -15 18 -18 85 -18 l79 0 0 660 0 660 -70 0 -70 0 -1 -377 -1 -378
-76 378 -77 377 -97 0 -98 0 0 -660z"/>
<path d="M3800 3150 l0 -660 145 0 c159 0 196 9 249 58 77 72 88 162 83 657
-3 331 -6 398 -20 441 -24 74 -56 116 -107 142 -40 20 -58 22 -197 22 l-153 0
0 -660z m302 430 c16 -32 18 -73 18 -420 0 -235 -4 -400 -10 -422 -13 -46 -34
-58 -99 -58 l-51 0 0 470 0 471 63 -3 c60 -3 63 -4 79 -38z"/>
<path d="M4487 3803 c-3 -5 -8 -37 -12 -73 -3 -36 -17 -155 -30 -265 -14 -110
-43 -355 -65 -545 -22 -190 -43 -364 -46 -387 l-5 -43 70 0 c80 0 76 -5 86
105 3 39 9 85 12 103 l5 32 93 0 92 0 13 -120 13 -120 78 0 c44 0 79 2 79 5 0
7 -54 460 -100 845 -17 140 -36 303 -42 363 l-12 107 -112 0 c-62 0 -115 -3
-117 -7z m163 -748 c6 -55 13 -110 16 -122 4 -22 2 -23 -71 -23 -60 0 -75 3
-75 15 0 17 57 515 67 585 5 36 11 4 29 -155 12 -110 27 -245 34 -300z"/>
<path d="M4940 3150 l0 -660 70 0 70 0 1 463 c0 254 2 458 5 452 3 -9 184
-902 184 -912 0 -1 36 -3 80 -3 l80 0 0 660 0 660 -70 0 -70 0 -1 -372 -1
-373 -76 373 -75 372 -99 0 -98 0 0 -660z"/>
<path d="M6080 3150 l0 -660 210 0 210 0 0 95 0 95 -130 0 -130 0 0 195 0 195
105 0 105 0 0 95 0 95 -105 0 -105 0 0 180 0 180 130 0 130 0 0 95 0 95 -210
0 -210 0 0 -660z"/>
</g>
</svg>
