<?xml version="1.0" standalone="no"?>
<!DOCTYPE svg PUBLIC "-//W3C//DTD SVG 20010904//EN"
 "http://www.w3.org/TR/2001/REC-SVG-20010904/DTD/svg10.dtd">
<svg version="1.0" xmlns="http://www.w3.org/2000/svg"
 width="765.000000pt" height="358.000000pt" viewBox="0 0 765.000000 358.000000"
 preserveAspectRatio="xMidYMid meet">

<g transform="translate(0.000000,358.000000) scale(0.100000,-0.100000)"
fill="#000000" stroke="none">
<path d="M1620 3280 l0 -299 -72 -3 c-70 -3 -73 -4 -76 -29 l-3 -26 -352 -5
c-248 -3 -354 -2 -359 6 -4 6 -8 25 -8 41 0 17 -3 40 -6 53 -6 22 -8 22 -178
22 -94 0 -249 -3 -344 -7 l-172 -6 6 -64 7 -63 -32 0 -31 0 0 -410 0 -410 48
1 c26 0 89 6 140 13 85 11 94 10 109 -6 15 -17 14 -18 -11 -18 -15 0 -58 -13
-96 -30 -38 -17 -79 -30 -92 -30 -13 0 -40 -3 -61 -6 -33 -6 -37 -10 -37 -36
0 -29 0 -29 62 -29 35 0 96 0 137 0 40 0 85 2 100 6 19 4 22 3 11 -5 -8 -5
-11 -10 -5 -10 5 0 -1 -7 -13 -16 -12 -8 -22 -21 -22 -29 0 -17 -15 -22 -120
-35 -138 -17 -150 -20 -150 -36 0 -10 6 -14 18 -10 70 20 222 39 222 28 0 -17
-31 -72 -41 -72 -6 0 -9 -8 -7 -17 4 -25 -10 -43 -27 -37 -8 4 -38 1 -67 -6
-29 -6 -63 -13 -75 -16 l-23 -4 0 -394 c0 -367 1 -395 18 -399 16 -4 16 -5 0
-6 -34 -2 -19 -53 19 -65 18 -6 20 -4 16 13 -3 13 -10 18 -21 13 -15 -5 -15
-4 -3 11 19 24 28 21 40 -13 5 -16 13 -30 16 -30 3 0 3 5 0 10 -3 6 -1 10 5
10 6 0 9 4 6 9 -3 4 14 4 38 -2 43 -10 51 -24 32 -55 -3 -5 1 -9 9 -9 8 0 12
4 9 9 -3 4 6 13 21 20 19 9 28 9 37 0 9 -9 9 -12 0 -12 -8 0 -11 -10 -7 -27 3
-16 2 -22 -1 -15 -11 23 -21 12 -16 -18 4 -26 2 -29 -14 -23 -11 4 -13 8 -6
11 7 2 12 8 12 13 0 4 -6 6 -14 3 -8 -3 -16 2 -19 13 -4 16 -5 16 -6 1 -2 -26
-26 -22 -41 7 -9 16 -23 25 -39 26 -25 1 -25 2 4 9 27 7 28 8 5 8 -14 0 -34
-3 -45 -7 -18 -8 -16 -10 13 -17 18 -5 33 -14 32 -19 -1 -12 -61 -8 -74 5 -6
6 -13 10 -17 10 -4 0 -8 -173 -9 -385 l0 -385 453 0 454 0 144 51 c79 28 173
61 209 74 36 13 135 48 220 78 243 87 819 294 880 316 l54 21 42 -21 c78 -37
101 -36 231 15 65 25 124 46 131 46 7 0 12 -16 13 -42 0 -32 9 -55 33 -88 34
-48 69 -61 110 -42 12 5 34 13 50 18 49 15 64 55 65 167 1 84 4 99 19 104 9 3
110 41 225 85 201 77 210 79 287 77 77 -2 79 -2 91 -32 7 -16 23 -42 35 -57
21 -24 22 -31 11 -59 -15 -40 -6 -46 76 -56 34 -3 73 -13 87 -20 14 -8 57 -28
95 -45 39 -18 97 -45 130 -60 88 -41 101 -45 138 -48 10 -1 16 -6 12 -11 -3
-6 10 -5 31 1 20 5 39 6 43 1 3 -4 4 -7 2 -6 -6 4 -31 -18 -31 -28 0 -4 10
-11 22 -15 l21 -6 -23 -18 -23 -18 21 -11 c30 -16 28 -29 -5 -33 -19 -2 -27
-9 -28 -26 -1 -19 5 -23 37 -28 21 -4 38 -10 38 -15 0 -5 6 -6 14 -3 27 10 25
-13 -4 -47 -16 -19 -29 -46 -30 -61 0 -24 -4 -28 -29 -28 -16 0 -31 4 -33 10
-4 14 -48 0 -48 -15 0 -8 8 -11 20 -8 11 3 30 -4 45 -15 25 -20 25 -21 5 -27
-11 -3 -20 -11 -20 -17 0 -5 -6 -8 -14 -5 -15 6 -29 -6 -39 -36 -6 -16 79 -17
1688 -17 l1695 0 0 984 c0 978 -2 1036 -32 983 -5 -9 -15 -14 -23 -11 -8 4
-15 1 -15 -5 0 -6 -7 -11 -15 -11 -8 0 -15 9 -15 20 0 26 -13 25 -72 -2 -29
-14 -46 -28 -43 -36 3 -7 1 -11 -4 -8 -20 13 -99 -106 -151 -226 -19 -43 -36
-64 -70 -87 -25 -16 -72 -49 -105 -72 -33 -24 -121 -85 -195 -137 l-135 -94
-50 6 c-27 3 -59 8 -70 10 -48 10 -332 68 -350 72 -11 2 -41 9 -67 15 l-47 11
19 21 c14 14 17 24 9 33 -7 8 -7 14 1 19 6 3 8 11 5 16 -4 5 1 9 9 9 20 0 20
9 1 30 -14 15 -13 20 5 43 25 32 26 101 1 92 -9 -3 -12 -3 -8 1 4 4 1 14 -5
23 -7 9 -8 13 -4 9 12 -10 39 29 30 43 -3 6 -16 9 -28 7 -12 -3 -28 1 -34 9
-18 19 -55 16 -83 -6 -51 -39 -122 -45 -254 -20 -55 10 -101 19 -102 19 -1 0
0 13 3 28 l6 29 -142 23 -142 24 6 44 c3 25 6 59 6 77 0 25 5 34 22 39 13 3
27 1 32 -4 6 -6 27 -10 47 -10 36 0 38 -2 44 -41 5 -30 11 -39 23 -37 12 2 18
15 20 43 3 42 17 54 83 70 27 7 27 7 34 136 4 71 11 129 15 129 5 0 15 3 23 6
12 4 16 -18 22 -141 5 -99 4 -150 -3 -157 -7 -7 -7 -16 0 -28 9 -14 5 -28 -20
-67 -35 -54 -43 -113 -17 -113 8 0 15 7 15 16 0 8 5 12 10 9 7 -4 9 3 5 22 -3
16 9 0 30 -39 32 -61 57 -88 83 -88 6 0 8 9 5 20 -4 16 0 20 22 20 15 0 57 16
93 37 37 20 86 46 108 58 78 41 87 51 82 85 -4 23 0 34 14 41 10 5 22 8 27 5
5 -3 7 8 5 24 -2 17 1 30 6 30 6 0 10 -5 10 -10 0 -7 14 -9 38 -5 33 5 35 4
12 -6 -46 -21 -3 -20 59 1 77 26 84 25 98 -5 13 -29 7 -31 -45 -16 -31 9 -33
9 -26 -12 7 -24 22 -37 41 -37 6 0 19 -8 28 -17 10 -9 25 -17 34 -18 9 0 22
-5 29 -9 9 -5 19 -1 28 13 16 23 56 27 98 12 23 -9 24 -12 13 -41 -11 -28 -15
-31 -47 -26 -19 3 -49 12 -65 20 -29 15 -95 22 -95 10 0 -17 38 -49 55 -47 11
1 5 -3 -13 -9 -32 -11 -179 -1 -262 16 -14 3 -7 0 15 -8 23 -7 78 -17 123 -21
48 -4 79 -11 76 -17 -3 -5 1 -17 10 -27 12 -13 19 -46 23 -104 5 -76 8 -86 30
-98 l23 -12 -21 -23 c-17 -19 -19 -26 -10 -38 9 -11 8 -15 -4 -20 -8 -3 -15
-13 -15 -22 0 -13 3 -14 14 -4 8 6 28 10 43 9 22 -2 40 8 81 46 29 26 50 50
48 53 -3 2 5 19 18 36 13 17 23 43 22 59 -1 17 7 35 21 49 21 19 32 21 142 19
75 -1 122 2 126 9 3 5 -1 13 -10 16 -12 5 -13 9 -5 14 33 20 -107 67 -207 70
-20 0 -15 24 7 40 11 8 25 29 31 47 14 42 0 68 -46 83 -30 10 -40 9 -63 -6
-15 -9 -31 -23 -35 -31 -6 -9 -13 -11 -20 -5 -7 5 -27 13 -45 17 -39 8 -33 25
9 25 16 0 65 16 109 36 74 34 80 35 102 20 16 -12 18 -16 6 -16 -8 0 -18 -9
-21 -21 -4 -16 3 -24 36 -38 23 -11 56 -23 72 -28 17 -5 30 -14 30 -21 0 -7
21 -33 48 -56 26 -24 47 -49 47 -55 0 -19 28 -43 35 -31 3 5 14 10 23 10 19 0
44 48 47 89 1 14 3 36 3 48 2 24 49 43 105 43 75 0 -36 68 -126 77 -45 5 -57
9 -57 23 0 16 -26 30 -57 30 -6 0 -19 -7 -27 -16 -20 -19 -119 -27 -140 -11
-8 7 -18 24 -22 40 -5 21 -3 27 10 27 8 0 20 9 25 19 6 10 30 26 53 34 24 8
51 18 61 22 13 6 16 3 11 -9 -3 -9 -1 -16 6 -16 6 0 8 -4 5 -10 -3 -5 3 -10
14 -10 12 0 21 7 21 16 0 13 9 14 58 8 31 -3 54 -3 50 1 -4 5 -3 14 3 22 9 9
8 13 0 13 -6 0 -11 5 -11 10 0 6 7 10 15 10 8 0 15 -9 15 -20 0 -16 7 -20 35
-20 28 0 35 4 35 20 0 16 -7 20 -32 21 l-33 1 38 15 c20 9 37 20 37 24 0 5 11
9 24 9 14 0 27 4 30 9 5 8 67 24 82 21 4 -1 11 4 15 12 6 9 9 6 9 -12 0 -20 2
-22 10 -10 5 8 10 11 10 5 -1 -5 -10 -21 -20 -34 -15 -17 -27 -22 -50 -19 -20
3 -30 0 -30 -9 0 -8 12 -13 30 -13 18 0 33 -6 36 -15 7 -17 51 -20 56 -4 5 14
88 2 88 -12 0 -5 9 -9 20 -9 15 0 20 7 20 25 0 21 -4 24 -27 19 -34 -6 -85 8
-91 24 -2 8 9 12 32 12 19 0 46 4 60 10 l26 10 0 225 c0 162 -3 225 -11 225
-8 0 -10 16 -6 50 l6 50 -27 -6 c-73 -17 -138 -63 -171 -122 -5 -9 -12 -14
-16 -11 -7 8 15 59 26 59 4 0 5 8 2 19 -6 23 -30 18 -69 -16 l-29 -25 -3 26
c-4 33 -22 33 -87 2 -27 -14 -51 -21 -53 -17 -1 4 -18 5 -38 3 -20 -3 -46 1
-59 8 -30 16 -84 -1 -131 -42 l-34 -30 0 31 c0 24 5 32 25 37 23 6 25 11 25
65 l0 59 53 2 52 2 -50 3 c-52 4 -65 14 -65 49 0 13 -8 24 -20 27 -17 4 -20 0
-20 -34 0 -21 -4 -39 -10 -39 -5 0 -10 11 -10 25 0 23 -4 25 -44 25 -41 0 -44
-2 -50 -31 -3 -17 -7 -70 -8 -118 l-2 -86 -3 73 c-3 62 -7 73 -21 71 -45 -4
-52 1 -52 36 l0 35 -75 0 c-41 0 -75 -4 -75 -8 0 -5 -16 -16 -35 -25 -39 -19
-42 -17 -19 18 10 15 12 25 5 25 -6 0 -11 15 -11 33 0 24 -3 28 -10 17 -5 -8
-10 -25 -10 -37 0 -16 -6 -23 -20 -23 -14 0 -21 9 -26 36 -6 34 -8 35 -48 32
-40 -3 -41 -4 -44 -40 -2 -29 -8 -38 -21 -38 -14 0 -17 6 -13 31 4 24 0 31
-17 36 -11 3 -21 9 -21 14 0 5 -25 9 -55 9 -30 0 -55 -4 -55 -8 0 -9 -47 -8
-57 1 -3 4 -25 7 -49 7 -46 0 -54 -9 -54 -65 0 -29 -4 -34 -30 -40 -33 -7 -76
-48 -97 -92 -12 -25 -12 -25 -7 -3 4 14 9 46 11 73 4 38 9 47 24 47 10 0 19 5
19 10 0 6 -8 10 -17 8 -14 -2 -19 5 -21 30 -3 31 -5 32 -47 32 l-43 0 -5 -47
c-7 -62 -4 -106 7 -114 5 -4 -10 -10 -33 -14 -32 -5 -53 -19 -90 -56 -27 -27
-56 -49 -66 -49 -14 0 -15 3 -5 15 7 8 21 15 31 15 11 0 21 9 24 23 4 15 24
30 61 47 l54 25 -2 75 -3 75 -69 3 -68 3 3 -98 4 -98 -52 -6 c-56 -7 -123 -41
-162 -83 -14 -14 -35 -26 -47 -26 -40 0 -116 -31 -161 -65 -23 -18 -40 -35
-36 -39 3 -3 1 -6 -5 -6 -20 0 -13 15 21 47 37 35 87 63 115 63 10 0 22 4 27
9 6 5 19 11 30 14 18 4 18 5 -2 6 -20 1 -23 6 -23 46 l0 45 46 0 c54 0 73 17
74 66 0 23 5 33 20 37 10 3 20 2 22 -2 2 -4 17 -4 33 0 23 5 25 7 8 8 -22 1
-23 6 -25 84 l-2 82 -3 -67 c-4 -68 -4 -68 -33 -68 -23 0 -30 5 -30 19 0 45
-9 51 -81 51 l-69 0 0 -40 c0 -39 -1 -40 -35 -40 -28 0 -35 4 -35 20 0 18 -7
20 -85 20 -78 0 -85 -2 -85 -20 0 -17 -7 -20 -51 -20 l-51 0 6 173 c4 94 9
227 12 295 l6 122 -25 0 c-34 0 -36 -18 -38 -302 l-2 -237 -96 -3 c-53 -2
-108 -2 -123 0 l-27 3 15 41 c8 22 14 44 14 49 0 5 -51 9 -113 9 l-113 0 -14
-47 c-8 -27 -14 -50 -13 -53 1 -3 -40 -5 -90 -5 -77 0 -109 -6 -199 -34 -96
-31 -108 -37 -108 -58 0 -13 -3 -23 -7 -24 -5 0 -20 -3 -35 -5 -16 -3 -28 0
-28 6 0 5 -21 10 -46 10 -27 0 -43 -4 -39 -10 10 -16 -35 -12 -51 4 -8 8 -14
33 -14 55 l0 41 -44 0 c-67 0 -78 7 -70 45 6 36 -4 49 -26 34 -10 -6 -11 -9
-2 -9 6 0 12 -9 12 -19 0 -11 -6 -22 -12 -24 -10 -4 -10 -6 0 -6 7 -1 10 -6 7
-11 -16 -26 -25 9 -24 98 1 130 14 312 23 337 6 15 5 16 -2 6 -7 -10 -9 4 -5
47 l6 62 -50 0 -50 0 -7 -61 c-3 -34 -6 -141 -6 -238 0 -196 -6 -251 -26 -251
-11 0 -14 -28 -14 -140 0 -79 4 -140 9 -140 14 0 26 -63 13 -68 -6 -2 -8 -11
-5 -20 4 -13 2 -13 -9 3 -11 12 -28 19 -52 19 l-36 0 0 92 c0 86 1 92 23 99
17 6 9 10 -36 14 -31 3 -56 11 -55 16 2 6 -19 11 -46 13 l-48 3 5 35 6 34
-115 1 c-227 2 -204 8 -204 -50 0 -34 -4 -51 -15 -55 -8 -3 -15 -1 -15 5 0 6
-7 6 -19 -1 -25 -13 -78 -13 -86 0 -8 13 -135 13 -135 0 0 -7 -29 -10 -77 -8
l-78 3 -5 63 c-3 34 -8 62 -12 62 -5 0 -110 0 -234 0 l-226 0 7 -127 c9 -191
13 -213 36 -213 12 0 19 -7 19 -20 0 -15 7 -20 26 -20 14 0 23 -4 19 -9 -9
-16 15 -24 31 -10 17 14 29 6 20 -16 -4 -12 -15 -14 -48 -9 -40 6 -42 5 -27
-10 18 -19 123 -22 224 -6 57 8 55 9 -30 5 -61 -3 -83 -1 -67 5 14 6 22 18 22
33 0 29 28 37 127 37 56 0 66 3 70 20 4 13 14 20 31 20 24 0 25 1 19 60 -9
103 -16 99 149 102 l144 3 0 -45 0 -45 -58 3 c-148 9 -241 -61 -296 -221 -7
-23 -36 -34 -46 -17 -6 9 -9 9 -15 0 -4 -7 -19 -9 -38 -5 -24 5 -28 4 -17 -4
11 -8 5 -11 -27 -11 -35 0 -43 3 -43 18 0 11 -8 18 -20 19 -11 1 -20 -2 -20
-6 0 -10 -32 -11 -45 -1 -5 4 -38 11 -72 15 -41 4 -63 11 -63 20 0 7 -8 15
-18 17 -21 6 -32 65 -32 181 0 65 -1 67 -25 67 -22 0 -25 5 -25 33 0 17 -3 49
-6 70 l-7 37 -183 0 -184 0 0 300 c0 293 0 300 -20 300 -20 0 -20 -7 -20 -300z
m3055 -199 c0 -27 -5 -46 -12 -48 -15 -5 -18 33 -3 42 15 9 12 27 -2 19 -7 -4
-10 -4 -6 1 4 4 2 15 -4 23 -10 12 -9 14 7 11 16 -4 20 -12 20 -48z m1520
-126 c0 -58 -1 -60 -27 -63 -28 -3 -28 -3 -28 56 0 65 5 74 35 70 18 -3 20
-10 20 -63z m132 23 c-3 -7 -5 -2 -5 12 0 14 2 19 5 13 2 -7 2 -19 0 -25z m3
-54 c0 -19 -4 -33 -8 -30 -9 6 -90 -29 -112 -49 -13 -11 -17 -11 -29 2 -12 13
-12 15 0 11 7 -2 34 8 58 24 25 15 51 28 58 28 7 0 13 11 13 25 0 14 5 25 10
25 6 0 10 -16 10 -36z m-987 6 c4 -17 0 -20 -29 -20 -27 0 -34 4 -34 20 0 15
7 20 29 20 20 0 30 -6 34 -20z m-250 -15 c-1 -11 -3 -53 -4 -92 l-3 -73 -47 0
c-65 0 -83 8 -67 28 10 12 10 16 1 19 -14 5 -18 80 -7 121 6 21 11 23 68 20
54 -3 61 -5 59 -23z m1254 -32 c-3 -10 -5 -2 -5 17 0 19 2 27 5 18 2 -10 2
-26 0 -35z m603 -13 c0 -30 -4 -40 -16 -40 -8 0 -29 -13 -45 -29 -36 -36 -37
-29 -3 16 14 18 32 33 40 33 9 0 14 10 14 30 0 17 2 30 5 30 3 0 5 -18 5 -40z
m-2875 20 c4 -6 -30 -9 -97 -8 l-103 2 75 6 c41 4 85 7 97 8 12 1 25 -2 28 -8z
m2015 -31 c0 -8 12 -10 33 -6 26 4 36 1 45 -13 15 -24 9 -27 -66 -36 -55 -6
-62 -5 -56 10 3 9 14 16 23 17 10 0 11 2 4 6 -18 7 -16 33 2 33 8 0 15 -5 15
-11z m260 -31 c0 -4 -15 -8 -32 -8 l-33 1 22 18 c12 10 21 20 20 22 -1 3 4 -2
11 -10 6 -8 12 -18 12 -23z m-463 12 c-3 -10 0 -21 7 -24 6 -2 -1 -4 -16 -3
-29 1 -32 5 -22 31 9 24 37 20 31 -4z m-197 -9 c0 -6 -4 -13 -10 -16 -5 -3
-10 1 -10 9 0 9 5 16 10 16 6 0 10 -4 10 -9z m-4242 -8 c-15 -2 -42 -2 -60 0
-18 2 -6 4 27 4 33 0 48 -2 33 -4z m-229 -179 l3 -176 -23 6 -24 6 23 -11 c12
-7 22 -20 22 -29 0 -15 -15 -18 -97 -24 -54 -4 -108 -10 -120 -13 -19 -4 -23
-1 -23 16 0 16 6 21 23 20 12 -1 42 -1 66 -1 37 2 42 4 36 20 -4 9 -10 29 -12
43 -5 26 -7 27 -70 26 l-66 -1 -13 43 c-15 51 -53 95 -109 124 -33 17 -59 21
-147 21 -60 1 -108 4 -108 9 0 8 20 10 120 7 l76 -2 2 33 c1 18 4 35 6 37 2 2
98 6 213 9 114 3 210 7 212 9 2 2 5 4 5 4 1 0 3 -79 5 -176z m4681 152 c0 -2
-13 -6 -30 -8 -16 -3 -30 -1 -30 4 0 4 14 8 30 8 17 0 30 -2 30 -4z m-1526
-34 c-10 -2 -31 -16 -46 -30 -28 -26 -37 -17 -17 19 14 27 50 40 68 25 12 -9
11 -12 -5 -14z m1723 -8 c-3 -3 -12 -4 -19 -1 -8 3 -5 6 6 6 11 1 17 -2 13 -5z
m710 -26 c18 -7 33 -15 33 -19 0 -7 -89 17 -98 26 -10 9 32 5 65 -7z m-3017
-23 c0 -22 -4 -25 -32 -25 -42 0 -63 13 -55 34 4 11 19 16 47 16 36 0 40 -2
40 -25z m2954 10 c11 -8 34 -15 50 -16 17 -1 -3 -7 -44 -15 -70 -13 -124 -13
-138 0 -3 3 8 7 24 7 17 1 22 3 12 6 -21 5 -23 19 -5 26 25 11 83 6 101 -8z
m-976 -3 c8 -6 1 -9 -20 -9 -58 -2 -102 -15 -128 -37 -50 -44 -64 -49 -30 -12
19 21 49 44 65 52 34 15 93 18 113 6z m803 1 c-10 -4 -8 -9 10 -20 23 -13 22
-14 -16 -8 -22 4 -47 11 -55 17 -11 7 -8 8 13 5 15 -2 27 0 27 4 0 5 8 9 18 8
12 0 13 -2 3 -6z m913 -8 c3 -8 1 -15 -4 -15 -5 0 -11 -12 -13 -27 -3 -17 -4
-11 -4 15 1 42 10 55 21 27z m-938 -31 c44 -6 51 -9 47 -25 -8 -30 -103 -24
-103 7 0 8 -16 14 -47 16 -27 2 -47 8 -46 13 4 16 76 22 88 7 6 -7 33 -15 61
-18z m-643 9 c-7 -2 -21 -2 -30 0 -10 3 -4 5 12 5 17 0 24 -2 18 -5z m437 -2
c-33 -6 -34 -7 -10 -14 14 -4 54 -7 90 -7 48 0 60 -3 48 -10 -11 -7 -62 -7
-149 0 -132 10 -177 19 -103 21 21 1 53 5 69 9 17 4 44 8 60 8 28 -1 28 -1 -5
-7z m712 -26 c-2 -14 -6 -25 -8 -25 -2 0 -4 11 -4 25 0 14 4 25 9 25 4 0 6
-11 3 -25z m-3262 -13 c0 -20 -33 -24 -59 -8 -11 7 -13 5 -8 -7 5 -12 1 -17
-12 -17 -28 0 -21 34 9 41 49 13 70 10 70 -9z m-260 -32 c0 -5 -4 -10 -10 -10
-5 0 -10 5 -10 10 0 6 5 10 10 10 6 0 10 -4 10 -10z m53 3 c-7 -2 -19 -2 -25
0 -7 3 -2 5 12 5 14 0 19 -2 13 -5z m1484 1 c-3 -3 -12 -4 -19 -1 -8 3 -5 6 6
6 11 1 17 -2 13 -5z m1080 0 c-3 -3 -12 -4 -19 -1 -8 3 -5 6 6 6 11 1 17 -2
13 -5z m900 -61 c-2 -16 -4 -5 -4 22 0 28 2 40 4 28 2 -13 2 -35 0 -50z m-940
51 c-3 -3 -12 -4 -19 -1 -8 3 -5 6 6 6 11 1 17 -2 13 -5z m1373 -2 c0 -4 -12
-9 -27 -10 -22 -1 -24 0 -13 8 18 12 40 13 40 2z m-1513 -28 c-3 -3 -12 -4
-19 -1 -8 3 -5 6 6 6 11 1 17 -2 13 -5z m-117 -38 c-5 -5 -10 -14 -10 -20 0
-6 5 -5 12 2 20 20 27 14 25 -18 -1 -17 -8 -30 -15 -30 -7 0 -11 -4 -8 -8 2
-4 -11 -9 -31 -10 -20 -2 -40 -5 -45 -8 -4 -3 -8 0 -8 6 0 6 7 13 15 16 17 7
21 34 5 34 -20 0 -9 19 13 22 14 2 23 11 25 26 3 19 6 21 18 11 10 -8 12 -15
4 -23z m-3723 18 c-3 -3 -12 -4 -19 -1 -8 3 -5 6 6 6 11 1 17 -2 13 -5z m48
-40 c25 -10 -2 -24 -45 -23 -21 1 -27 3 -15 6 11 3 24 9 30 14 11 11 9 11 30
3z m-1120 -24 c-3 -5 -12 -10 -18 -10 -7 0 -6 4 3 10 19 12 23 12 15 0z m5992
-22 c-3 -8 -6 -5 -6 6 -1 11 2 17 5 13 3 -3 4 -12 1 -19z m-3247 -12 c0 -13
-28 -26 -57 -26 -7 0 -13 9 -13 20 0 16 7 20 35 20 23 0 35 -5 35 -14z m-150
-20 c0 -14 -4 -27 -8 -30 -4 -2 -50 -8 -101 -12 -87 -6 -93 -5 -89 12 4 23 47
30 80 13 19 -9 21 -9 11 2 -21 21 -15 28 30 32 23 2 50 4 60 5 12 1 17 -5 17
-22z m760 9 c0 -8 -7 -20 -16 -27 -8 -7 -24 -21 -35 -30 -10 -10 -19 -13 -19
-7 0 5 -4 7 -10 4 -10 -6 -100 29 -100 39 0 3 19 -4 43 -14 23 -11 44 -15 45
-10 2 6 13 10 25 10 29 0 57 19 39 27 -15 6 -6 23 14 23 8 0 14 -7 14 -15z
m-372 0 c-3 -3 -41 -7 -86 -10 -45 -2 -91 -9 -104 -16 -13 -8 -26 -12 -30 -11
-5 1 -8 -2 -8 -7 0 -5 -12 -12 -27 -16 l-28 -8 25 -7 25 -8 -26 -1 c-15 -1
-159 -19 -320 -41 -684 -92 -913 -121 -928 -117 -9 3 -6 5 9 6 13 0 67 8 120
16 52 8 144 22 204 30 60 9 114 19 120 24 6 5 34 12 61 16 28 4 53 12 57 18 5
8 8 4 8 -8 0 -18 5 -20 35 -17 19 2 35 8 35 13 0 5 26 9 58 9 31 0 152 13 268
29 183 25 217 32 259 56 72 43 113 54 199 55 44 0 77 -2 74 -5z m255 -2 c-7
-2 -19 -2 -25 0 -7 3 -2 5 12 5 14 0 19 -2 13 -5z m50 0 c-7 -2 -19 -2 -25 0
-7 3 -2 5 12 5 14 0 19 -2 13 -5z m-127 -40 c4 -10 8 -22 8 -28 1 -5 12 -8 25
-7 33 5 97 -8 83 -17 -6 -3 -19 -24 -29 -46 -18 -40 -45 -56 -59 -34 -4 8 -3
9 4 5 7 -4 12 -2 12 3 0 6 -6 11 -14 11 -8 0 -16 5 -18 11 -3 9 -14 9 -42 -1
-32 -10 -40 -10 -47 1 -13 21 -11 26 14 34 22 7 22 8 1 12 -18 3 -28 15 -52
66 -2 4 21 7 51 7 43 0 57 -4 63 -17z m2104 3 c0 -8 -4 -26 -10 -40 -6 -16 -6
-27 0 -31 11 -7 11 -104 1 -150 l-7 -30 -7 40 c-15 94 -18 208 -5 217 19 12
28 10 28 -6z m-537 -23 c-7 -2 -19 -2 -25 0 -7 3 -2 5 12 5 14 0 19 -2 13 -5z
m1167 -3 c0 -5 -7 -7 -15 -4 -8 4 -15 8 -15 10 0 2 7 4 15 4 8 0 15 -4 15 -10z
m100 0 c0 -5 -7 -7 -15 -4 -8 4 -15 8 -15 10 0 2 7 4 15 4 8 0 15 -4 15 -10z
m-4510 -44 c0 -8 -6 -16 -12 -18 -7 -3 9 -10 34 -16 26 -7 50 -16 53 -22 3 -5
-13 -3 -36 5 -68 24 -179 19 -306 -15 -61 -16 -131 -41 -154 -55 -34 -22 -57
-28 -121 -31 -61 -3 -79 -1 -75 9 2 6 12 13 23 15 58 9 64 12 64 41 0 27 3 29
49 35 27 4 51 10 53 15 5 14 362 45 366 32 4 -12 23 -15 21 -3 -3 17 2 22 21
22 11 0 20 -6 20 -14z m4955 -26 c3 -5 1 -10 -4 -10 -6 0 -11 5 -11 10 0 6 2
10 4 10 3 0 8 -4 11 -10z m-1103 -22 c4 -29 49 -36 83 -14 13 9 27 16 30 16 8
0 6 -60 -2 -61 -5 0 -17 -2 -28 -5 -11 -2 -31 -5 -45 -6 -14 -1 -31 -6 -37
-11 -7 -5 -13 -6 -14 -1 0 5 -4 0 -9 -11 -7 -15 -9 -9 -9 25 -1 51 8 90 19 90
5 0 10 -10 12 -22z m162 -23 c-4 -8 -10 -15 -15 -15 -5 0 -9 7 -9 15 0 8 7 15
15 15 9 0 12 -6 9 -15z m616 -5 c0 -13 -20 -13 -40 0 -12 8 -9 10 13 10 15 0
27 -4 27 -10z m-6023 -88 c23 -12 45 -27 48 -33 4 -6 -6 -4 -21 4 -16 8 -35
12 -43 9 -8 -3 -11 0 -7 6 4 7 -15 13 -51 17 -32 3 -68 8 -80 11 -13 2 -23 1
-23 -3 0 -5 -24 -7 -53 -5 -30 2 -80 -2 -113 -8 -32 -6 -71 -14 -87 -16 -15
-2 -53 -12 -85 -23 -31 -10 -73 -22 -92 -26 -19 -4 -55 -18 -80 -32 -41 -24
-43 -24 -22 -4 31 30 114 66 214 92 128 33 172 38 318 35 117 -2 141 -5 177
-24z m1318 18 c-27 -5 -63 -8 -80 -8 -25 1 -23 2 10 8 22 4 58 7 80 7 38 0 37
0 -10 -7z m-437 -43 c-14 -12 -40 -44 -59 -72 -40 -61 -45 -65 -89 -65 -19 0
-57 -7 -83 -15 -26 -8 -86 -17 -133 -20 -73 -4 -91 -9 -116 -30 -16 -14 -40
-25 -53 -25 -13 0 -25 -4 -27 -8 -1 -5 -21 -15 -43 -24 -50 -20 -57 -38 -13
-39 21 -1 26 -3 13 -6 -11 -3 -33 -16 -50 -29 l-31 -23 -11 73 c-7 41 -21 100
-32 132 -11 32 -17 62 -15 66 9 14 91 9 97 -5 9 -24 183 -61 224 -47 29 9 39
11 180 31 77 11 113 22 103 32 -3 3 -83 -6 -179 -19 l-173 -24 -74 26 c-41 15
-74 30 -74 34 0 4 26 11 58 15 31 3 66 9 77 11 15 4 23 -2 32 -26 10 -27 15
-30 40 -24 33 8 63 32 63 49 0 25 61 33 103 14 31 -14 245 14 266 36 8 8 17
12 20 9 3 -3 -6 -15 -21 -27z m310 26 c-10 -2 -26 -2 -35 0 -10 3 -2 5 17 5
19 0 27 -2 18 -5z m-85 -10 c-7 -2 -19 -2 -25 0 -7 3 -2 5 12 5 14 0 19 -2 13
-5z m4742 -83 c3 -5 -1 -10 -9 -10 -9 0 -16 5 -16 10 0 6 4 10 9 10 6 0 13 -4
16 -10z m69 -5 c3 -8 2 -15 -3 -15 -5 0 -14 7 -21 15 -10 12 -10 15 3 15 8 0
17 -7 21 -15z m86 -20 c-7 -8 -21 -15 -31 -15 -11 0 -19 7 -19 15 0 10 10 15
31 15 27 0 30 -2 19 -15z m-570 -20 c0 -8 -9 -15 -20 -15 -20 0 -26 11 -13 23
12 13 33 7 33 -8z m648 -2 c-10 -2 -28 -2 -40 0 -13 2 -5 4 17 4 22 1 32 -1
23 -4z m-1361 -145 c-3 -8 -6 -5 -6 6 -1 11 2 17 5 13 3 -3 4 -12 1 -19z m935
-48 c41 0 51 -3 55 -20 3 -12 14 -20 26 -20 11 0 18 -3 15 -6 -4 -3 -32 -2
-63 1 -35 5 -52 11 -44 15 8 6 0 11 -24 15 -21 4 -40 12 -44 18 -4 7 0 8 11 4
10 -4 40 -7 68 -7z m-102 -10 c8 -5 11 -10 5 -10 -5 0 -17 5 -25 10 -8 5 -10
10 -5 10 6 0 17 -5 25 -10z m-5283 -26 c-3 -3 -12 -4 -19 -1 -8 3 -5 6 6 6 11
1 17 -2 13 -5z m5541 -21 c-10 -2 -26 -2 -35 0 -10 3 -2 5 17 5 19 0 27 -2 18
-5z m-1213 -42 c-7 -13 27 -31 58 -31 14 0 44 -17 72 -42 47 -42 48 -42 64
-21 19 23 59 23 125 0 l36 -12 -18 -34 c-16 -30 -27 -36 -83 -50 -58 -15 -64
-19 -69 -46 -6 -33 -13 -35 -125 -22 -53 6 -51 5 25 -12 47 -10 99 -24 115
-31 l30 -12 -29 -10 c-21 -8 -25 -13 -15 -19 8 -5 23 -9 35 -9 11 0 30 -13 42
-29 l21 -29 -32 9 c-28 8 -254 49 -270 49 -3 0 -4 -9 -2 -19 6 -33 -45 -47
-113 -30 -31 7 -60 13 -63 12 -4 -1 -4 31 0 45 1 1 10 -7 21 -18 17 -17 31
-20 78 -18 l57 3 -3 40 c-4 46 -7 50 -45 59 -19 4 -26 3 -22 -4 3 -6 -3 -10
-15 -10 -12 0 -19 4 -16 9 4 5 -3 7 -13 4 -11 -3 -21 -13 -24 -24 -3 -10 -10
-19 -16 -19 -6 0 -8 6 -6 13 5 12 -102 57 -136 57 -8 0 -35 -17 -59 -37 -43
-37 -43 -38 -19 -44 35 -10 51 -10 45 0 -3 4 5 18 17 29 22 21 23 21 51 3 l29
-19 -26 -26 -25 -25 46 -17 c26 -9 63 -23 82 -31 l35 -14 -34 6 c-18 3 -69 21
-113 41 -51 23 -99 37 -133 39 -32 2 -74 14 -106 30 -30 15 -49 23 -44 17 6
-5 39 -25 75 -43 85 -44 111 -74 104 -116 -5 -28 -3 -33 21 -39 14 -3 52 -4
83 0 33 4 72 2 92 -5 19 -6 85 -14 145 -19 65 -5 128 -15 153 -26 42 -17 44
-20 39 -51 -7 -40 4 -48 58 -44 58 3 72 9 78 31 3 11 14 20 25 20 11 0 25 7
32 15 7 8 19 15 27 15 8 0 11 5 8 10 -3 6 5 10 19 10 26 0 66 44 66 73 0 8 9
17 21 20 16 4 20 12 18 34 -2 15 -7 33 -11 39 -10 13 15 26 35 19 6 -3 48 -11
92 -19 165 -30 380 -77 388 -85 7 -7 -250 -205 -423 -326 -32 -22 -181 -128
-331 -236 -300 -214 -440 -312 -627 -438 -108 -73 -125 -81 -140 -70 -15 13
-16 12 -3 -4 7 -9 12 -17 10 -18 -2 0 -20 -2 -39 -4 -30 -3 -32 -2 -14 8 29
17 24 41 -8 45 -27 3 -39 27 -17 34 5 2 11 10 12 18 2 8 15 29 31 45 42 45 59
82 47 104 -8 14 -7 22 4 31 8 7 15 19 15 26 0 8 5 14 10 14 6 0 10 8 10 17 0
13 -3 14 -12 5 -7 -7 -16 -12 -20 -12 -10 0 1 51 13 64 9 10 -14 36 -33 36
-10 0 -9 -3 2 -10 13 -8 13 -11 -2 -26 -16 -16 -18 -16 -24 -1 -4 12 -13 15
-37 10 -29 -6 -31 -5 -18 10 7 9 19 17 25 17 7 0 27 15 45 34 l33 34 -22 20
c-21 19 -21 21 -3 31 10 6 12 11 6 11 -7 0 -13 10 -12 23 0 12 3 16 6 10 5
-13 33 -19 33 -8 0 4 -7 20 -16 37 -13 25 -18 28 -26 17 -8 -11 -9 -10 -4 4 3
9 9 25 12 35 4 13 4 14 -4 3 -7 -10 -14 -10 -30 -2 -25 13 -48 6 -54 -17 -3
-10 -22 -26 -44 -36 -21 -10 -46 -23 -54 -28 -8 -5 -35 -18 -60 -30 -25 -11
-57 -29 -72 -39 -14 -11 -31 -19 -37 -19 -13 0 -51 -31 -51 -42 0 -5 12 -8 26
-8 14 0 23 -4 19 -10 -3 -5 -15 -10 -26 -10 -10 0 -19 5 -19 10 0 15 -41 12
-73 -5 -15 -8 -25 -10 -22 -5 4 6 2 10 -3 10 -5 0 -9 12 -9 26 0 17 4 24 13
20 8 -3 14 -1 14 4 0 5 10 12 23 16 12 3 30 13 40 22 14 12 17 13 17 1 1 -11
3 -11 13 2 7 9 24 19 39 22 15 4 30 16 33 27 7 22 45 36 70 26 9 -3 13 -2 10
4 -11 17 23 41 52 38 22 -2 27 1 25 14 -2 13 4 18 25 19 15 1 33 2 38 4 6 1
16 3 23 3 6 1 12 9 12 17 0 9 11 20 24 25 13 4 32 20 44 34 11 14 24 26 29 26
11 0 33 36 26 44 -4 3 -19 6 -34 6 -18 0 -32 7 -39 19 -5 11 -22 21 -37 23
-16 2 -27 8 -25 16 3 18 -50 41 -56 24 -3 -9 -7 -10 -17 -2 -9 8 -15 8 -20 0
-3 -5 0 -10 7 -10 7 -1 -10 -11 -39 -23 -29 -13 -63 -32 -75 -44 -29 -26 -66
-75 -66 -87 0 -9 -52 -46 -65 -46 -5 0 -1 7 8 16 9 9 13 21 10 28 -3 6 -8 18
-11 27 -3 9 -16 22 -29 29 -20 11 -29 9 -64 -11 -22 -12 -43 -30 -46 -40 -3
-9 -24 -29 -46 -43 -43 -29 -47 -53 -8 -48 26 2 57 -32 39 -43 -15 -9 -12 -25
5 -25 32 0 -1 -50 -33 -50 -15 -1 -16 -2 -1 -13 9 -7 14 -16 12 -22 -1 -5 12
-18 30 -29 57 -33 13 -28 -59 8 -135 66 -225 99 -237 87 -6 -6 -21 -11 -34
-11 -13 0 -23 -4 -23 -10 0 -5 -7 -10 -15 -10 -9 0 -12 6 -9 18 3 9 -1 5 -10
-9 -20 -34 -80 -52 -127 -39 -18 6 -46 10 -62 10 -15 0 -44 7 -65 16 -33 14
-35 17 -20 28 16 12 16 14 0 31 -16 18 -16 18 0 6 10 -7 25 -11 33 -7 8 3 25
-5 39 -19 22 -22 34 -25 91 -25 70 0 110 13 99 32 -5 8 -1 9 12 3 10 -4 34
-10 52 -13 25 -3 31 -1 27 10 -4 9 -17 20 -31 27 -13 6 -35 16 -48 22 -15 7
-26 22 -28 38 -2 21 -10 27 -38 31 -20 4 -49 16 -66 29 -29 21 -34 22 -60 9
-16 -8 -83 -32 -149 -53 -66 -22 -122 -41 -125 -43 -15 -11 165 -136 182 -126
6 4 8 3 5 -3 -9 -14 20 -25 43 -18 11 4 19 -1 22 -12 3 -11 55 -43 131 -81
114 -57 157 -86 146 -97 -3 -2 -101 45 -219 105 -157 80 -232 125 -280 166
-92 79 -111 87 -200 86 -41 -1 -70 1 -65 4 6 3 62 26 125 52 112 46 115 48
120 81 l5 34 190 69 c105 37 240 86 300 109 61 22 157 57 215 78 l105 38 22
-25 c13 -14 25 -40 29 -58 9 -49 24 -57 62 -34 39 24 52 54 52 125 l0 53 79
31 c152 58 181 62 234 35 15 -8 27 -12 27 -9 0 3 -18 14 -39 24 l-40 17 106
39 c58 21 122 38 141 38 23 -1 30 2 21 7 -7 5 -11 11 -9 12 3 2 64 26 135 52
72 27 162 62 200 77 73 30 100 35 90 20z m-1610 -141 c-4 -6 7 -15 24 -21 32
-11 37 -23 22 -48 -8 -12 -16 -12 -55 -1 -26 7 -49 17 -52 21 -3 5 -21 9 -40
9 -71 0 -17 33 71 43 17 2 31 5 33 6 2 0 0 -4 -3 -9z m105 -40 c32 0 31 -18
-2 -29 -45 -16 -47 -15 -35 26 7 23 13 31 15 20 2 -9 12 -17 22 -17z m-2420
-70 c0 -5 -8 -10 -17 -10 -15 0 -16 2 -3 10 19 12 20 12 20 0z m-70 -20 c0 -5
-2 -10 -4 -10 -3 0 -8 5 -11 10 -3 6 -1 10 4 10 6 0 11 -4 11 -10z m4250 0 c0
-5 -7 -10 -15 -10 -8 0 -15 5 -15 10 0 6 7 10 15 10 8 0 15 -4 15 -10z m197
-76 c-3 -3 -12 -4 -19 -1 -8 3 -5 6 6 6 11 1 17 -2 13 -5z m-574 -91 c-7 -2
-19 -2 -25 0 -7 3 -2 5 12 5 14 0 19 -2 13 -5z m167 -28 c66 -14 131 -30 143
-36 21 -9 21 -9 -3 -4 -14 2 -83 17 -155 31 -71 14 -132 28 -134 30 -10 9 36
2 149 -21z m1415 -42 c21 -10 41 -30 51 -52 16 -33 16 -35 -3 -51 -11 -8 -23
-28 -27 -43 -8 -35 -27 -35 -22 1 2 15 1 19 -1 9 -3 -14 -11 -17 -26 -13 -12
3 -31 6 -42 6 -11 0 -15 4 -10 8 14 10 18 62 5 62 -5 0 -10 -6 -10 -12 0 -7
-12 0 -26 16 -22 25 -27 26 -37 13 -9 -11 -18 -13 -35 -6 -13 5 -21 13 -17 19
6 9 -17 4 -40 -9 -5 -3 -20 -4 -32 -2 -13 1 -23 -2 -23 -8 0 -6 -10 -15 -22
-21 -17 -8 -14 -2 10 20 27 25 36 29 48 19 12 -10 13 -9 8 4 -7 19 15 32 88
52 60 16 111 13 163 -12z m-5501 -71 c3 -5 -1 -9 -9 -9 -8 0 -12 4 -9 9 3 4 7
8 9 8 2 0 6 -4 9 -8z m5236 4 c0 -3 -4 -8 -10 -11 -5 -3 -10 -1 -10 4 0 6 5
11 10 11 6 0 10 -2 10 -4z m-5320 -22 c0 -2 -7 -4 -15 -4 -8 0 -15 4 -15 10 0
5 7 7 15 4 8 -4 15 -8 15 -10z m85 -6 c29 3 49 -13 41 -33 -7 -18 -33 -15 -28
4 1 6 -1 11 -5 12 -5 0 -18 2 -30 5 -28 5 -30 -12 -3 -21 11 -4 20 -15 20 -27
0 -17 -2 -18 -15 -8 -13 11 -19 7 -17 -11 1 -3 -11 -6 -26 -7 -28 0 -42 -3
-100 -17 -28 -6 -30 -10 -20 -23 12 -14 10 -14 -10 -1 -19 12 -24 12 -31 0 -6
-10 -10 -10 -13 -1 -3 9 -15 6 -43 -10 -48 -27 -86 -31 -137 -13 -39 13 -63
10 -53 -7 3 -5 17 -7 30 -4 14 2 25 0 25 -6 0 -5 -11 -10 -25 -10 -14 0 -25
-3 -25 -7 0 -5 -12 -9 -27 -10 -14 0 -30 -8 -35 -17 -11 -20 -28 -21 -28 -2 0
9 -7 12 -20 9 -15 -4 -18 -9 -10 -18 7 -8 5 -12 -5 -12 -8 0 -15 6 -15 14 0
15 44 36 73 35 9 0 15 3 13 7 -6 9 55 57 67 53 5 -1 6 1 3 6 -3 5 4 18 14 30
11 12 20 26 20 33 0 6 7 9 15 5 8 -3 18 1 22 8 5 7 17 15 28 19 17 6 17 5 -2
-9 -28 -20 -31 -39 -4 -24 11 5 27 7 35 4 9 -3 16 -2 16 4 0 6 -6 13 -12 15
-7 3 -4 6 7 7 64 5 75 5 75 -1 0 -4 7 -10 15 -13 10 -4 20 3 27 19 7 15 15 22
22 17 15 -11 106 -6 119 7 5 5 15 7 21 3 6 -3 20 -5 31 -4z m5075 -13 c-19
-14 -36 -25 -39 -25 -11 1 50 50 62 50 6 0 -4 -11 -23 -25z m511 -62 c-9 -16
-10 -14 -11 12 0 21 3 26 11 18 8 -8 8 -16 0 -30z m-113 -42 c3 -8 -1 -12 -9
-9 -7 2 -15 10 -17 17 -3 8 1 12 9 9 7 -2 15 -10 17 -17z m-561 -87 c3 -8 -3
-28 -15 -42 -15 -21 -27 -26 -53 -24 -44 4 -45 6 -26 47 14 30 21 35 52 35 23
0 38 -6 42 -16z m-2477 -23 c0 -5 -11 -11 -25 -13 -14 -3 -25 -3 -25 -1 0 3
34 19 48 22 1 1 2 -3 2 -8z m-3044 -29 c-9 -9 -37 8 -31 18 5 8 11 7 21 -1 8
-6 12 -14 10 -17z m4024 18 c0 -5 -2 -10 -4 -10 -3 0 -8 5 -11 10 -3 6 -1 10
4 10 6 0 11 -4 11 -10z m-925 -10 c4 -6 -7 -10 -27 -10 -25 0 -29 3 -18 10 19
13 37 13 45 0z m592 -97 c-13 -13 -20 -14 -29 -5 -9 9 -6 14 13 21 31 11 37 5
16 -16z m-4237 -8 c-14 -8 -36 -14 -50 -13 -17 0 -19 2 -7 5 9 2 17 9 17 14 0
5 15 9 33 9 l32 -1 -25 -14z m-123 -1 c-3 -3 -12 -4 -19 -1 -8 3 -5 6 6 6 11
1 17 -2 13 -5z m38 -4 c-3 -5 -12 -10 -18 -10 -7 0 -6 4 3 10 19 12 23 12 15
0z m163 1 c9 -5 2 -8 -20 -9 -23 -1 -28 2 -18 8 18 12 22 12 38 1z m-226 -21
c10 -15 15 -17 27 -7 11 10 13 9 10 -2 -3 -8 -15 -18 -27 -22 -17 -6 -20 -5
-15 8 5 13 3 13 -15 4 -11 -6 -28 -8 -36 -5 -9 3 -16 2 -16 -4 0 -6 5 -12 12
-14 8 -3 7 -6 -4 -10 -11 -5 -15 0 -14 20 2 37 10 47 40 50 17 1 30 -5 38 -18z
m-323 -44 c-11 -11 -59 -17 -59 -8 0 6 12 12 28 14 28 4 39 1 31 -6z m444 7
c-7 -2 -19 -2 -25 0 -7 3 -2 5 12 5 14 0 19 -2 13 -5z m-373 -27 c0 -2 -9 -6
-20 -9 -11 -3 -18 -1 -14 4 5 9 34 13 34 5z m4734 -20 c-3 -9 -10 -13 -16 -10
-5 3 -4 12 3 20 15 18 22 13 13 -10z m1092 -177 c34 -21 46 -49 20 -49 -7 0
-26 -10 -41 -22 -32 -25 -98 -26 -122 -2 -17 17 -30 18 -35 3 -2 -6 -20 -11
-41 -11 -20 0 -34 -4 -31 -9 3 -5 -1 -9 -8 -9 -9 0 -9 -3 2 -10 13 -8 13 -10
-1 -10 -9 0 -22 7 -29 15 -15 18 -34 20 -23 3 11 -19 13 -39 2 -32 -5 3 -7 10
-4 15 10 15 -7 10 -27 -8 -10 -9 -31 -17 -46 -19 -15 -1 -21 0 -14 3 19 7 14
26 -5 19 -15 -5 -14 -3 2 10 37 29 52 34 52 18 0 -8 -6 -13 -13 -10 -8 3 -16
1 -18 -3 -5 -7 18 -8 45 -2 3 0 4 11 2 24 -3 16 3 26 24 38 15 9 34 14 42 11
8 -2 11 0 8 5 -6 9 91 47 143 57 39 6 80 -2 116 -25z m78 -114 c-4 -8 -8 -15
-10 -15 -2 0 -4 7 -4 15 0 8 4 15 10 15 5 0 7 -7 4 -15z m-497 -41 c0 -9 -11
-23 -24 -31 -12 -8 -23 -20 -23 -26 0 -14 -31 -47 -44 -47 -6 0 -4 6 5 13 21
16 32 47 16 47 -6 0 0 8 13 17 14 10 28 17 33 15 4 -1 7 5 7 13 0 8 4 15 8 15
5 0 9 -7 9 -16z m29 -30 c-11 -8 -25 -14 -30 -13 -6 0 -1 5 12 11 12 6 22 16
22 21 0 6 3 7 7 3 5 -4 -1 -14 -11 -22z m-126 -44 c-14 -10 -27 -17 -29 -14
-6 5 31 33 44 33 6 1 -1 -8 -15 -19z m-70 -70 c0 -5 -7 -10 -15 -10 -9 0 -12
-6 -9 -17 5 -15 4 -16 -5 -3 -8 11 -7 18 6 28 20 15 23 15 23 2z m-47 -55 c-3
-9 -8 -14 -10 -11 -3 3 -2 9 2 15 9 16 15 13 8 -4z m-28 -14 c3 -5 1 -12 -5
-16 -5 -3 -10 1 -10 9 0 18 6 21 15 7z m-41 -56 c-4 -8 -11 -15 -16 -15 -6 0
-5 6 2 15 7 8 14 15 16 15 2 0 1 -7 -2 -15z"/>
<path d="M1148 2483 c7 -3 16 -2 19 1 4 3 -2 6 -13 5 -11 0 -14 -3 -6 -6z"/>
<path d="M6688 2693 c6 -2 18 -2 25 0 6 3 1 5 -13 5 -14 0 -19 -2 -12 -5z"/>
<path d="M2231 2294 c0 -11 3 -14 6 -6 3 7 2 16 -1 19 -3 4 -6 -2 -5 -13z"/>
<path d="M6835 1820 c-3 -5 -1 -10 4 -10 6 0 11 5 11 10 0 6 -2 10 -4 10 -3 0
-8 -4 -11 -10z"/>
<path d="M5478 1543 c7 -3 16 -2 19 1 4 3 -2 6 -13 5 -11 0 -14 -3 -6 -6z"/>
<path d="M5518 1533 c7 -3 16 -2 19 1 4 3 -2 6 -13 5 -11 0 -14 -3 -6 -6z"/>
<path d="M5678 1503 c7 -3 16 -2 19 1 4 3 -2 6 -13 5 -11 0 -14 -3 -6 -6z"/>
<path d="M5718 1493 c7 -3 16 -2 19 1 4 3 -2 6 -13 5 -11 0 -14 -3 -6 -6z"/>
<path d="M4425 1214 c2 -30 28 -54 59 -54 36 0 156 -32 156 -42 0 -5 4 -7 9
-4 5 3 11 0 14 -8 3 -8 -2 -17 -11 -21 -16 -6 -16 -7 0 -19 16 -12 88 -10 88
3 0 10 59 11 65 1 12 -19 68 -10 125 19 32 16 60 27 63 25 3 -3 16 0 29 7 12
7 29 12 36 11 6 -2 12 1 12 6 0 5 25 21 55 37 31 15 58 32 61 36 18 30 -24 20
-157 -37 -83 -35 -164 -64 -179 -64 -35 0 -93 24 -83 34 5 5 -2 6 -13 2 -13
-4 -78 12 -173 44 -84 27 -153 50 -154 50 -2 0 -2 -12 -2 -26z"/>
<path d="M5943 1043 c-27 -5 -28 -9 -9 -29 18 -18 21 -18 46 3 35 30 24 38
-37 26z"/>
<path d="M3940 961 c-185 -69 -194 -73 -176 -83 12 -7 31 -4 64 10 52 22 153
55 221 72 33 9 41 14 30 21 -23 15 -60 9 -139 -20z"/>
<path d="M5180 900 c0 -5 5 -10 10 -10 6 0 10 5 10 10 0 6 -4 10 -10 10 -5 0
-10 -4 -10 -10z"/>
<path d="M1395 1030 c3 -5 8 -10 11 -10 2 0 4 5 4 10 0 6 -5 10 -11 10 -5 0
-7 -4 -4 -10z"/>
<path d="M1201 971 c-7 -5 -9 -11 -4 -14 5 -3 15 -2 22 2 7 5 9 11 4 14 -5 3
-15 2 -22 -2z"/>
<path d="M365 759 c-11 -17 1 -21 15 -4 8 9 8 15 2 15 -6 0 -14 -5 -17 -11z"/>
<path d="M5778 473 c7 -3 16 -2 19 1 4 3 -2 6 -13 5 -11 0 -14 -3 -6 -6z"/>
<path d="M5665 440 c-3 -5 -1 -10 4 -10 6 0 11 5 11 10 0 6 -2 10 -4 10 -3 0
-8 -4 -11 -10z"/>
<path d="M5509 313 c-13 -16 -12 -17 4 -4 9 7 17 15 17 17 0 8 -8 3 -21 -13z"/>
<path d="M2986 3571 c-4 -7 -5 -15 -2 -18 9 -9 19 4 14 18 -4 11 -6 11 -12 0z"/>
<path d="M4558 3573 c6 -2 18 -2 25 0 6 3 1 5 -13 5 -14 0 -19 -2 -12 -5z"/>
<path d="M4653 3567 c42 -7 62 -6 70 2 8 8 -7 11 -58 10 l-70 -2 58 -10z"/>
<path d="M5566 3543 c-3 -21 -5 -83 -4 -138 l1 -100 7 135 c4 74 7 136 5 138
-1 1 -5 -14 -9 -35z"/>
<path d="M2981 3454 c0 -11 3 -14 6 -6 3 7 2 16 -1 19 -3 4 -6 -2 -5 -13z"/>
<path d="M6470 3348 c0 -10 6 -27 13 -38 10 -17 9 -22 -2 -29 -11 -7 -11 -9 0
-14 10 -4 10 -6 2 -6 -8 -1 -13 -14 -13 -32 0 -37 23 -35 29 2 3 24 17 39 36
39 6 0 5 -4 -1 -8 -21 -13 -27 -52 -10 -58 28 -11 17 -24 -18 -24 -39 0 -53
-14 -36 -35 14 -17 87 -20 110 -5 10 6 11 10 3 10 -7 0 -13 5 -13 10 0 6 15 9
34 7 31 -4 35 -1 40 26 9 45 8 51 -14 75 -12 12 -17 22 -12 22 14 0 10 29 -4
34 -13 5 -27 -22 -22 -44 2 -7 -2 -14 -8 -17 -7 -2 -14 10 -16 27 -6 42 15 63
53 55 22 -5 29 -3 29 9 0 13 -13 16 -66 16 -58 0 -65 -2 -54 -15 10 -12 10
-15 -4 -15 -9 0 -16 6 -16 13 0 7 -9 13 -20 13 -13 0 -20 -7 -20 -18z m60 -44
c0 -2 -7 -4 -15 -4 -8 0 -15 4 -15 10 0 5 7 7 15 4 8 -4 15 -8 15 -10z"/>
<path d="M3753 3305 c0 -22 2 -30 4 -17 2 12 2 30 0 40 -3 9 -5 -1 -4 -23z"/>
<path d="M7158 3024 c-5 -4 -8 -20 -8 -36 0 -16 -6 -31 -15 -34 -9 -4 -15 -17
-14 -33 1 -17 3 -20 6 -8 2 9 9 17 14 17 8 0 10 -9 13 -69 1 -13 7 -26 14 -28
8 -3 12 9 12 41 0 45 1 46 33 47 l32 2 -35 6 c-33 6 -35 8 -40 54 -3 27 -8 45
-12 41z"/>
<path d="M7255 2968 c-5 -29 -7 -68 -7 -85 1 -18 -3 -33 -8 -33 -6 0 -10 -5
-10 -11 0 -7 8 -9 23 -4 12 4 38 10 57 14 40 7 47 28 42 117 l-4 54 -43 0 -43
0 -7 -52z"/>
<path d="M7456 3007 c-5 -10 -6 -41 -4 -71 4 -51 4 -52 -14 -34 -11 11 -18 33
-18 58 0 22 -4 40 -10 40 -5 0 -10 -13 -10 -29 0 -16 -5 -31 -12 -33 -13 -5
-19 -48 -6 -48 4 0 8 6 8 13 1 6 6 1 13 -13 8 -17 22 -26 43 -28 28 -3 32 0
36 27 2 16 1 28 -3 25 -5 -2 -9 21 -11 53 -2 41 -6 53 -12 40z"/>
<path d="M5617 2983 c-12 -11 -8 -23 9 -23 8 0 12 5 9 10 -3 6 -2 10 4 10 5 0
12 -6 14 -12 3 -8 6 -6 6 5 1 17 -28 24 -42 10z"/>
<path d="M3520 2910 c-12 -8 -11 -10 8 -10 12 0 22 5 22 10 0 13 -11 13 -30 0z"/>
<path d="M7371 2864 c0 -11 3 -14 6 -6 3 7 2 16 -1 19 -3 4 -6 -2 -5 -13z"/>
<path d="M7234 2221 c-2 -2 8 -10 22 -17 19 -10 32 -11 47 -3 21 10 21 10 3
-5 -33 -27 -79 -28 -207 -8 -73 12 -128 17 -133 12 -6 -6 -4 -11 5 -14 52 -18
103 -26 160 -26 51 0 72 -5 92 -20 27 -21 62 -17 53 7 -9 21 42 36 104 29 31
-3 66 -3 78 1 40 10 24 30 -30 39 -56 8 -187 12 -194 5z"/>
<path d="M7540 2168 c-12 -13 -26 -31 -31 -41 -15 -26 17 -34 56 -13 33 18 43
46 16 46 -13 1 -12 3 3 15 19 15 19 15 -2 15 -12 0 -31 -10 -42 -22z"/>
<path d="M3440 374 c-367 -179 -412 -198 -461 -198 -37 0 -78 17 -235 98 -104
54 -203 107 -220 117 l-32 19 0 -27 c0 -91 7 -98 120 -127 31 -8 67 -20 80
-27 13 -7 26 -12 31 -11 4 1 7 -3 7 -8 0 -6 9 -10 19 -10 10 0 29 -12 42 -26
13 -14 32 -35 42 -45 9 -10 17 -25 17 -33 0 -21 -25 -77 -32 -71 -3 3 -8 -1
-11 -10 -6 -13 21 -15 227 -15 208 0 235 2 240 17 6 15 7 15 19 -1 11 -15 46
-16 372 -14 325 3 360 5 363 19 2 11 -7 21 -25 27 -28 10 -28 10 -3 11 19 1
22 3 10 10 -8 6 -18 7 -22 5 -4 -3 -8 6 -8 20 0 13 -6 26 -12 29 -7 2 -10 8
-6 12 4 4 14 2 23 -5 8 -7 15 -8 15 -2 0 5 -7 15 -15 22 -12 10 -18 9 -31 -5
-14 -13 -15 -19 -4 -25 7 -4 9 -13 5 -19 -5 -9 -10 -9 -21 0 -11 9 -14 8 -14
-5 0 -10 -4 -14 -10 -11 -5 3 -10 17 -10 30 0 17 -4 23 -14 19 -20 -8 -28 37
-10 63 8 13 23 23 34 23 11 0 20 5 20 11 0 5 -4 8 -8 5 -5 -3 -21 4 -37 14
-25 17 -27 20 -11 26 10 4 15 13 12 21 -3 8 -1 23 4 34 10 17 7 19 -25 17 -19
-2 -35 -6 -35 -10 0 -5 -25 -8 -55 -8 -40 0 -57 4 -61 15 -4 8 -12 15 -20 15
-8 0 -14 4 -14 10 0 6 -5 9 -11 8 -6 -2 -18 16 -26 40 -8 23 -18 42 -21 41 -4
0 -86 -39 -182 -85z"/>
<path d="M4305 246 c-11 -7 -36 -16 -56 -20 -19 -3 -44 -12 -54 -20 -17 -13
-18 -17 -6 -40 11 -19 17 -23 27 -15 7 6 18 8 23 5 5 -4 12 -2 15 3 4 5 -3 12
-14 16 -11 4 -18 10 -15 15 3 5 12 7 20 3 8 -3 15 -1 15 5 0 6 -6 12 -12 14
-7 3 6 8 30 11 23 4 42 12 42 18 0 8 5 7 15 -1 17 -14 31 -8 20 9 -9 15 -27
14 -50 -3z"/>
<path d="M4340 206 c0 -9 5 -16 10 -16 6 0 10 4 10 9 0 6 -4 13 -10 16 -5 3
-10 -1 -10 -9z"/>
<path d="M4115 110 c-3 -5 -2 -10 4 -10 5 0 13 5 16 10 3 6 2 10 -4 10 -5 0
-13 -4 -16 -10z"/>
</g>
</svg>
