<?xml version="1.0" standalone="no"?>
<!DOCTYPE svg PUBLIC "-//W3C//DTD SVG 20010904//EN"
 "http://www.w3.org/TR/2001/REC-SVG-20010904/DTD/svg10.dtd">
<svg version="1.0" xmlns="http://www.w3.org/2000/svg"
 width="1200.000000pt" height="1200.000000pt" viewBox="0 0 1200.000000 1200.000000"
 preserveAspectRatio="xMidYMid meet">

<g transform="translate(0.000000,1200.000000) scale(0.100000,-0.100000)"
fill="#000000" stroke="none">
<path d="M5945 11189 c-467 -475 -1152 -702 -2350 -779 -278 -18 -767 -23
-1034 -11 -140 6 -256 9 -259 6 -10 -10 19 -5449 29 -5550 39 -382 190 -744
437 -1050 127 -156 364 -385 570 -550 40 -32 69 -61 65 -65 -4 -4 -73 -22
-153 -40 -168 -37 -511 -126 -685 -176 -187 -55 -409 -125 -417 -133 -4 -4 62
-130 147 -281 85 -151 155 -278 155 -281 0 -3 -55 -30 -123 -59 -102 -44 -542
-261 -585 -289 -10 -6 79 -134 333 -482 191 -261 353 -480 361 -488 11 -12 38
-2 186 71 231 115 382 177 628 258 228 76 489 139 713 174 81 13 150 26 153
29 3 2 -31 66 -76 141 -44 75 -89 154 -100 176 l-20 38 49 11 c270 58 797 130
1181 161 l135 11 170 -82 c211 -101 592 -269 612 -269 9 0 169 77 356 170
l340 170 111 -10 c466 -44 854 -105 1374 -217 45 -9 82 -21 82 -25 0 -4 -26
-49 -58 -100 -70 -111 -132 -221 -132 -234 0 -5 55 -22 123 -38 455 -106 1029
-332 1431 -564 78 -45 79 -45 95 -26 176 220 727 918 729 924 6 16 -325 216
-548 331 -69 35 -127 65 -128 66 -2 1 66 119 152 263 l155 261 -27 10 c-363
143 -944 327 -1344 425 -87 21 -158 41 -158 44 1 3 35 31 76 64 193 150 473
419 628 601 193 227 347 527 421 820 70 274 66 97 63 3065 -3 2559 -4 2675
-21 2674 -379 -31 -1012 -38 -1342 -15 -595 42 -1172 165 -1565 333 -287 123
-594 320 -800 514 -37 35 -69 64 -72 64 -2 0 -30 -27 -63 -61z m145 -95 c361
-316 795 -534 1313 -659 281 -68 673 -131 957 -155 305 -26 1241 -21 1358 7
l22 5 0 -2688 c0 -2949 4 -2746 -59 -2989 -69 -263 -196 -514 -374 -739 -105
-132 -407 -432 -574 -570 -192 -158 -194 -159 -242 -151 -23 4 -41 10 -41 15
0 4 37 36 83 71 236 183 575 505 717 684 188 236 324 513 389 792 53 227 51
97 51 2907 l0 2609 -92 -7 c-603 -43 -1243 -31 -1658 30 -858 126 -1368 339
-1847 772 l-83 74 -113 -108 c-419 -402 -989 -604 -1947 -688 -396 -35 -1024
-47 -1380 -26 -80 4 -146 7 -148 5 -7 -6 19 -4676 28 -5060 10 -430 14 -472
76 -674 133 -435 446 -837 962 -1231 61 -47 111 -88 111 -92 1 -3 -21 -9 -49
-13 -50 -7 -50 -7 -132 58 -618 483 -920 927 -1013 1487 -16 99 -17 128 -40
4376 l-7 1201 439 -5 c569 -6 948 13 1383 68 308 40 644 110 862 180 357 114
711 321 923 539 21 23 42 41 45 41 3 0 39 -30 80 -66z m-3362 -1294 l35 -104
36 104 c33 97 38 105 64 108 37 4 35 -7 -21 -163 -46 -126 -48 -130 -78 -133
l-31 -3 -52 143 c-28 79 -51 147 -51 151 0 5 14 7 32 5 31 -3 32 -6 66 -108z
m412 80 l0 -30 -75 0 -75 0 0 -30 0 -30 70 0 c68 0 70 -1 70 -25 0 -24 -2 -25
-70 -25 l-70 0 0 -40 0 -40 80 0 c79 0 80 0 80 -25 l0 -25 -110 0 -110 0 0
150 0 150 105 0 105 0 0 -30z m270 0 l0 -30 -75 0 -75 0 0 -30 0 -30 70 0 c68
0 70 -1 70 -25 0 -24 -2 -25 -70 -25 l-70 0 0 -40 0 -40 80 0 c79 0 80 0 80
-25 l0 -25 -110 0 -110 0 0 150 0 150 105 0 105 0 0 -30z m218 21 c52 -10 69
-25 78 -69 6 -28 2 -37 -29 -66 -32 -30 -35 -36 -21 -47 17 -14 74 -94 74
-103 0 -3 -16 -6 -35 -6 -31 0 -38 6 -75 60 -31 46 -46 60 -65 60 -24 0 -25
-3 -25 -60 l0 -60 -30 0 -30 0 0 150 0 150 58 0 c31 -1 77 -5 100 -9z m411 -6
c50 -25 57 -75 11 -75 -19 0 -30 5 -30 14 0 27 -69 36 -89 12 -10 -12 -8 -18
11 -29 13 -8 38 -18 56 -22 84 -17 118 -94 68 -152 -22 -25 -30 -28 -91 -28
-61 0 -69 3 -91 28 -31 36 -31 63 0 69 18 4 30 -2 46 -24 32 -44 100 -35 100
13 0 12 -18 23 -62 38 -33 11 -69 28 -80 37 -34 31 -19 106 25 124 34 14 95
11 126 -5z m161 -92 c0 -118 10 -143 60 -143 44 0 50 15 50 132 l0 108 30 0
30 0 0 -111 c0 -153 -16 -178 -113 -179 -52 0 -62 4 -88 29 -29 29 -29 30 -29
150 l0 121 30 0 30 0 0 -107z m394 98 c56 -9 76 -30 76 -76 0 -35 -24 -75 -46
-75 -17 0 -19 -16 -3 -26 13 -8 69 -94 69 -106 0 -4 -13 -8 -29 -8 -25 0 -37
10 -72 60 -31 44 -48 60 -65 60 -23 0 -24 -4 -24 -60 l0 -60 -35 0 -35 0 0
143 c0 79 3 147 7 150 9 9 96 8 157 -2z m346 -21 l0 -30 -75 0 -75 0 0 -30 0
-30 70 0 c68 0 70 -1 70 -25 0 -24 -2 -25 -70 -25 l-70 0 0 -40 0 -40 80 0
c79 0 80 0 80 -25 l0 -25 -110 0 -110 0 0 150 0 150 105 0 105 0 0 -30z m172
-69 l57 -94 3 94 c3 93 3 94 28 94 l25 0 3 -147 3 -148 -30 0 c-27 0 -36 9
-83 86 -28 47 -55 87 -60 90 -4 3 -8 -36 -8 -85 0 -90 0 -91 -25 -91 l-25 0 0
151 0 150 27 -3 c23 -2 38 -19 85 -97z m371 72 c37 -34 49 -72 45 -141 -4 -57
-8 -68 -35 -92 -25 -22 -45 -30 -96 -35 -108 -12 -102 -20 -105 135 -1 74 0
141 3 148 8 22 161 9 188 -15z m315 -8 c37 -43 22 -110 -28 -127 -8 -2 2 -24
29 -63 22 -32 41 -62 41 -67 0 -4 -15 -8 -33 -8 -26 0 -36 6 -50 30 -34 56
-68 90 -93 90 -23 0 -24 -3 -24 -60 l0 -60 -30 0 -30 0 0 143 c0 79 3 147 8
151 4 5 48 6 97 2 80 -5 92 -9 113 -31z m276 -105 c31 -77 56 -145 56 -150 0
-6 -13 -10 -29 -10 -25 0 -31 6 -41 35 -11 35 -12 35 -69 35 -56 0 -58 -1 -74
-35 -13 -26 -23 -35 -42 -35 -14 0 -25 6 -25 13 0 11 61 171 100 265 7 16 18
22 39 22 28 0 31 -5 85 -140z m376 114 c10 -10 21 -29 25 -41 6 -20 3 -23 -24
-23 -20 0 -34 7 -41 21 -16 28 -85 24 -85 -6 0 -15 15 -24 65 -41 73 -26 90
-43 90 -94 0 -49 -34 -81 -94 -87 -57 -7 -102 11 -121 48 -21 40 -19 49 11 49
16 0 34 -10 46 -25 22 -28 68 -34 88 -10 23 27 7 47 -55 66 -66 20 -95 47 -95
88 0 54 43 83 118 78 36 -3 59 -10 72 -23z m286 -114 c29 -74 53 -141 54 -147
0 -8 -12 -13 -29 -13 -25 0 -31 6 -41 35 -11 35 -12 35 -69 35 -56 0 -58 -1
-74 -35 -13 -26 -23 -35 -42 -35 -14 0 -25 4 -25 9 0 5 20 60 44 123 25 62 49
126 55 141 9 24 16 28 42 25 31 -3 34 -7 85 -138z m144 -11 l0 -150 -27 3 -28
3 -3 134 c-1 74 0 141 2 148 3 7 17 13 31 13 l25 0 0 -151z m230 44 c0 -118
10 -143 60 -143 44 0 50 15 50 132 l0 108 30 0 30 0 0 -111 c0 -153 -16 -178
-113 -179 -52 0 -62 4 -88 29 -29 29 -29 30 -29 150 l0 121 30 0 30 0 0 -107z
m350 9 l55 -92 5 92 c5 91 5 93 30 93 l25 0 0 -145 0 -145 -29 0 c-26 0 -36
10 -85 90 l-56 90 -3 -93 -3 -93 -27 3 -27 3 -3 134 c-1 74 0 141 3 149 3 8
16 12 32 10 22 -2 37 -19 83 -96z m235 -52 l0 -145 -30 0 -30 0 -3 134 c-1 74
0 141 3 149 3 8 16 12 32 10 l28 -3 0 -145z m123 42 c19 -57 36 -101 38 -99 3
2 19 49 38 103 27 83 36 100 55 102 13 2 27 0 31 -5 4 -4 -16 -71 -44 -148
-50 -136 -52 -140 -82 -143 l-31 -3 -50 143 c-28 79 -49 147 -46 151 3 5 16 7
31 5 23 -3 29 -13 60 -106z m417 78 c0 -24 -2 -25 -77 -28 l-78 -3 0 -29 0
-30 70 0 c68 0 70 -1 70 -25 0 -24 -2 -25 -70 -25 l-70 0 0 -40 0 -40 80 0
c79 0 80 0 80 -25 l0 -25 -110 0 -110 0 0 150 0 151 108 -3 c107 -3 107 -3
107 -28z m273 -5 c32 -38 28 -72 -14 -111 -19 -19 -31 -34 -26 -34 8 0 82
-103 82 -115 0 -3 -15 -5 -33 -5 -29 0 -38 7 -73 58 -29 42 -46 58 -67 60 -27
3 -27 3 -27 -57 l0 -61 -30 0 -30 0 0 152 0 151 98 -6 c88 -6 99 -9 120 -32z
m241 20 c50 -25 57 -75 11 -75 -19 0 -30 5 -30 14 0 27 -69 36 -89 12 -10 -12
-8 -18 11 -29 13 -8 38 -18 56 -22 84 -17 118 -94 68 -152 -22 -25 -30 -28
-91 -28 -61 0 -69 3 -91 28 -32 37 -31 63 1 70 19 3 29 -1 37 -17 14 -28 28
-36 59 -36 29 0 49 17 49 41 0 12 -18 23 -62 38 -33 11 -69 28 -80 37 -34 31
-19 106 25 124 34 14 95 11 126 -5z m161 -135 l0 -150 -30 0 -30 0 0 143 c0
79 3 147 7 150 3 4 17 7 30 7 l23 0 0 -150z m265 120 c0 -22 -5 -25 -42 -28
l-43 -3 0 -120 0 -119 -30 0 -30 0 0 120 0 120 -40 0 c-42 0 -58 15 -46 45 5
13 25 15 118 13 l113 -3 0 -25z m105 -25 c17 -30 35 -55 38 -55 4 1 21 24 37
53 25 44 35 52 63 55 17 2 32 0 32 -3 0 -4 -21 -39 -47 -78 -42 -64 -48 -80
-53 -142 -5 -67 -6 -70 -32 -73 -28 -3 -28 -3 -28 58 0 56 -4 67 -50 139 -27
43 -50 83 -50 89 0 7 13 12 29 12 25 0 34 -8 61 -55z m-6468 -451 c38 -20 59
-66 59 -129 0 -73 -22 -112 -77 -137 -122 -54 -232 52 -195 188 24 90 121 125
213 78z m2070 0 c38 -20 59 -66 59 -129 0 -73 -22 -112 -77 -137 -115 -50
-219 36 -200 167 16 104 118 150 218 99z m565 0 c41 -26 58 -64 58 -129 0 -99
-47 -149 -140 -149 -90 0 -136 50 -136 149 0 106 60 161 161 147 19 -2 45 -11
57 -18z m297 12 c30 -12 66 -49 66 -67 0 -4 -12 -10 -26 -13 -20 -5 -32 -2
-46 13 -27 30 -80 31 -110 4 -38 -34 -30 -141 12 -163 43 -23 110 -4 110 30 0
16 -7 20 -30 20 -25 0 -30 4 -30 25 0 24 3 25 60 25 l60 0 0 -66 0 -65 -37
-16 c-49 -20 -121 -20 -162 2 -44 22 -75 92 -68 153 11 101 107 157 201 118z
m778 -7 c27 -14 57 -63 64 -105 16 -102 -44 -178 -141 -178 -89 0 -138 52
-138 149 0 105 63 161 163 147 19 -2 43 -9 52 -13z m-3402 -14 c0 -24 -2 -25
-70 -25 l-70 0 0 -35 0 -35 60 0 c57 0 60 -1 60 -25 0 -24 -3 -25 -60 -25
l-60 0 0 -60 0 -60 -30 0 -30 0 0 145 0 145 100 0 100 0 0 -25z m370 0 c0 -23
-4 -25 -45 -25 l-45 0 0 -120 0 -120 -30 0 -30 0 0 120 0 120 -40 0 c-36 0
-40 3 -40 25 l0 25 115 0 115 0 0 -25z m250 0 c0 -24 -2 -25 -75 -25 l-75 0 0
-30 0 -30 70 0 c68 0 70 -1 70 -25 0 -24 -2 -25 -70 -25 l-70 0 0 -40 0 -40
80 0 c79 0 80 0 80 -25 l0 -25 -110 0 -110 0 0 145 0 145 105 0 105 0 0 -25z
m243 14 c13 -6 31 -23 40 -39 15 -25 15 -28 1 -34 -28 -11 -49 -6 -62 14 -8
13 -23 20 -42 20 -47 0 -70 -31 -70 -93 0 -68 19 -97 65 -97 26 0 39 6 51 25
17 25 39 31 62 16 10 -6 11 -13 1 -34 -37 -81 -164 -84 -222 -6 -22 31 -26
122 -7 168 24 59 118 90 183 60z m167 -44 l0 -55 55 0 55 0 0 55 c0 54 0 55
30 55 l30 0 0 -145 0 -145 -30 0 -30 0 0 60 0 60 -55 0 -55 0 0 -60 0 -60 -30
0 -30 0 0 145 0 145 30 0 c30 0 30 -1 30 -55z m342 -31 c28 -47 55 -87 60 -90
4 -3 8 36 8 85 0 90 0 91 25 91 l25 0 0 -145 0 -145 -29 0 c-26 0 -35 9 -83
88 l-53 87 -3 -87 -3 -88 -29 0 -30 0 0 145 0 145 30 0 c26 0 35 -9 82 -86z
m558 -34 l0 -120 75 0 c73 0 75 -1 75 -25 l0 -25 -105 0 -105 0 0 145 0 145
30 0 30 0 0 -120z m880 78 c40 -74 40 -74 74 -16 27 45 37 53 65 56 41 4 40 2
-23 -97 -42 -64 -46 -77 -46 -131 0 -60 0 -60 -30 -60 l-30 0 0 62 c0 56 -4
67 -50 140 -27 43 -50 81 -50 83 0 3 15 5 33 5 29 0 36 -6 57 -42z m879 29
c41 -20 64 -72 64 -139 -1 -103 -42 -138 -165 -138 l-78 0 0 145 0 145 78 0
c42 0 88 -6 101 -13z m171 -132 l0 -145 -30 0 -30 0 0 145 0 145 30 0 30 0 0
-145z m223 134 c26 -12 51 -54 42 -70 -11 -16 -50 -9 -63 12 -16 26 -85 24
-90 -3 -2 -12 13 -21 61 -37 76 -26 101 -49 101 -97 0 -51 -39 -86 -101 -91
-28 -2 -58 2 -72 9 -29 15 -65 73 -56 88 11 18 53 11 60 -11 13 -39 77 -47
105 -14 19 22 -2 41 -65 60 -89 25 -121 90 -70 140 19 20 34 25 74 25 28 0 61
-5 74 -11z m167 -44 l0 -55 55 0 55 0 0 55 c0 54 0 55 30 55 l30 0 0 -145 0
-145 -30 0 -30 0 0 60 0 60 -55 0 -55 0 0 -60 0 -60 -30 0 -30 0 0 145 0 145
30 0 c30 0 30 -1 30 -55z m430 -81 c30 -74 57 -140 58 -145 2 -5 -11 -9 -30
-9 -28 0 -35 5 -45 30 -11 29 -14 30 -70 30 -56 0 -59 -1 -70 -30 -9 -25 -17
-30 -43 -30 -22 0 -30 4 -27 13 3 6 28 72 57 145 51 131 52 132 83 132 32 0
33 -2 87 -136z m531 107 c24 -29 24 -62 1 -87 -18 -18 -18 -19 5 -37 32 -26
31 -80 -2 -112 -22 -23 -32 -25 -120 -25 l-95 0 0 146 0 146 96 -4 c86 -3 98
-5 115 -27z m139 -81 c0 -107 1 -110 26 -127 24 -15 29 -15 53 -2 25 14 26 17
29 127 l3 112 30 0 31 0 -4 -125 c-3 -114 -5 -126 -26 -147 -19 -19 -33 -23
-88 -23 -60 0 -68 3 -90 28 -22 26 -24 36 -24 148 l0 119 30 0 30 0 0 -110z
m430 97 c52 -26 52 -104 -1 -136 -26 -16 -28 -19 -13 -31 17 -15 74 -95 74
-104 0 -3 -15 -6 -34 -6 -30 0 -38 6 -66 50 -58 91 -100 93 -100 5 0 -54 0
-55 -30 -55 l-30 0 0 145 0 145 88 0 c50 0 98 -6 112 -13z m158 -109 l3 -118
69 0 c68 0 70 -1 70 -25 l0 -25 -100 0 -100 0 0 146 0 145 28 -3 27 -3 3 -117z
m386 -18 c31 -77 56 -142 56 -145 0 -3 -14 -5 -31 -5 -25 0 -33 6 -42 30 -11
29 -14 30 -70 30 -56 0 -59 -1 -70 -30 -9 -25 -17 -30 -44 -30 l-33 0 13 33
c8 17 33 83 57 145 43 110 44 112 76 112 32 0 32 -1 88 -140z m-3300 -139 c-1
-33 -7 -49 -24 -63 -29 -24 -37 -16 -19 19 11 20 11 27 2 30 -7 3 -13 18 -13
34 0 27 3 30 28 27 25 -3 27 -6 26 -47z m1799 -1 c-2 -33 -8 -50 -25 -63 -26
-21 -38 -6 -16 20 10 13 10 17 1 20 -7 3 -13 20 -13 39 0 33 2 35 28 32 25 -3
27 -6 25 -48z m1694 -2222 l-3 -1993 -26 -111 c-76 -321 -210 -600 -408 -849
-144 -181 -501 -517 -757 -715 l-83 -63 -212 41 c-286 56 -528 95 -793 128
-121 15 -221 28 -222 29 -2 1 2 40 8 88 l12 87 612 0 612 0 12 -107 c7 -60 14
-119 17 -132 5 -24 5 -24 25 -4 19 18 19 25 10 104 -18 138 -18 139 28 139
l39 0 11 -77 c6 -42 13 -78 14 -79 2 -2 22 14 45 34 l43 37 -175 1075 c-162
994 -306 1930 -306 1984 0 20 40 46 252 170 l251 147 70 -35 c66 -34 107 -45
107 -28 0 4 -20 13 -44 20 -95 25 -186 134 -186 223 l0 39 -264 0 c-231 0
-265 2 -270 16 -17 44 -5 59 111 149 64 50 217 170 340 268 123 97 228 177
233 177 5 0 14 -9 20 -20 27 -50 171 -129 268 -145 34 -6 42 -4 42 9 0 9 -12
18 -27 21 -83 18 -120 32 -172 65 -106 69 -170 171 -171 273 l0 57 -384 0
-384 0 -6 28 c-8 39 -106 704 -106 720 0 10 -14 12 -52 10 l-53 -3 -56 -375
-55 -375 -402 -3 -402 -2 0 -58 c0 -143 -132 -286 -303 -328 -42 -11 -67 -22
-67 -30 0 -18 12 -17 85 1 80 21 150 61 207 118 44 44 51 48 68 35 11 -7 170
-132 354 -278 315 -249 335 -267 335 -297 l1 -33 -285 0 -285 0 0 -40 c0 -52
-19 -97 -60 -144 -35 -40 -116 -86 -150 -86 -11 0 -20 -5 -20 -11 0 -27 91 6
171 63 13 9 64 -17 270 -137 140 -81 259 -153 265 -159 9 -8 -7 -134 -61 -496
-88 -582 -421 -2640 -429 -2647 -3 -3 -81 -1 -173 6 -297 21 -562 31 -829 31
l-262 0 69 187 c38 102 69 187 69 188 0 1 48 5 108 8 59 4 119 9 133 13 25 6
31 -2 129 -175 78 -139 107 -181 122 -181 96 0 553 163 650 231 35 25 38 64
16 199 -23 139 -25 132 17 114 41 -17 36 -31 65 161 11 72 23 142 26 157 3 17
1 28 -5 28 -15 0 -175 -138 -179 -154 -2 -7 13 -108 33 -224 19 -115 35 -219
35 -230 0 -36 -292 -160 -526 -223 -64 -17 -121 -28 -128 -26 -7 3 -58 85
-112 182 l-99 177 -35 -6 c-19 -3 -88 -9 -152 -12 l-116 -7 -70 -186 -69 -186
-99 1 c-164 2 -337 40 -485 106 l-71 32 7 195 7 196 -106 53 c-59 28 -111 52
-116 52 -6 0 -78 -49 -161 -110 -84 -60 -155 -110 -159 -110 -13 0 -111 70
-191 136 -86 71 -188 177 -249 258 l-42 55 115 167 114 168 -61 123 -61 122
-215 3 -215 3 -17 53 c-53 158 -86 332 -95 492 l-6 115 196 64 c108 35 201 69
206 75 4 6 11 55 15 108 l6 96 -192 117 c-106 65 -194 119 -196 120 -18 16
168 529 206 567 4 4 109 -1 232 -11 124 -10 226 -18 227 -17 1 0 31 42 66 93
l65 92 -93 221 -94 222 66 61 c112 105 246 205 395 296 l37 22 189 -145 189
-145 87 31 86 31 0 227 0 227 53 11 c139 31 259 44 442 49 l200 6 70 -227 c38
-125 72 -231 75 -236 6 -9 217 -47 223 -39 2 2 31 49 65 104 33 55 88 137 121
182 l61 83 87 -31 c49 -17 104 -40 124 -50 34 -17 49 -16 49 2 0 14 -265 118
-274 108 -23 -26 -158 -222 -198 -287 l-51 -84 -36 6 c-20 3 -60 9 -89 12 -41
5 -56 12 -63 28 -5 12 -38 115 -74 230 -35 115 -70 214 -77 218 -26 19 -394 1
-551 -26 -81 -14 -156 -30 -167 -36 -19 -10 -20 -21 -20 -235 0 -124 -2 -225
-5 -225 -2 0 -33 -11 -68 -24 l-64 -24 -188 144 c-103 79 -191 144 -195 144
-11 0 -175 -105 -264 -168 -43 -32 -121 -97 -173 -147 l-95 -90 91 -214 c50
-117 91 -218 91 -224 0 -6 -23 -45 -52 -86 -28 -42 -52 -77 -52 -77 -1 -1
-100 7 -221 17 -121 10 -225 19 -231 19 -14 0 -92 -164 -143 -302 -46 -121
-95 -294 -88 -311 3 -7 91 -64 196 -127 139 -84 190 -120 191 -134 0 -18 -6
-19 -107 -13 -58 4 -144 7 -190 7 l-83 0 0 110 0 110 -40 0 -40 0 0 -112 0
-111 -97 6 c-54 4 -137 7 -185 7 l-88 0 0 230 0 230 -40 0 -40 0 0 -230 0
-230 -226 7 -226 6 4 -281 c1 -155 3 -283 3 -283 0 -1 68 -7 150 -13 l150 -11
-3 -153 -2 -153 -61 -91 c-33 -49 -59 -91 -57 -94 2 -2 42 -8 89 -13 l84 -10
91 90 91 91 12 137 c6 75 11 145 11 156 0 17 7 18 112 11 62 -4 113 -8 113 -9
1 -1 -4 -63 -11 -137 -7 -74 -13 -138 -13 -143 -1 -6 -104 -126 -189 -219 -14
-15 -23 -30 -20 -33 2 -3 43 -12 91 -21 72 -13 89 -14 105 -2 10 7 75 57 145
112 120 93 127 100 128 135 0 35 1 34 22 -24 l22 -60 63 -3 c34 -2 62 -5 62
-8 0 -3 -38 -52 -85 -110 -47 -59 -85 -110 -85 -114 0 -9 17 -14 143 -40 170
-34 152 -39 271 79 l103 103 32 -58 c17 -32 31 -61 31 -66 0 -4 -49 -80 -110
-168 -60 -88 -110 -166 -110 -173 0 -20 132 -177 218 -259 80 -76 221 -187
271 -213 25 -12 33 -8 183 102 l158 114 96 -48 96 -47 -7 -196 -7 -196 61 -28
c144 -64 243 -91 426 -116 l130 -18 -95 -1 c-399 -5 -1165 -88 -1658 -179
l-103 -19 -104 79 c-627 477 -947 915 -1061 1453 -26 118 -26 132 -34 680 -4
308 -11 1207 -15 1998 l-7 1437 1274 1 c1583 2 5845 14 5876 17 l22 2 -3
-1992z m-1842 1302 c14 -113 28 -222 31 -242 l6 -38 -66 0 c-36 0 -66 1 -66 3
0 1 14 108 30 237 16 129 30 242 31 250 2 34 10 -16 34 -210z m-215 -440 c0
-19 -82 -555 -85 -558 -7 -8 -675 540 -675 553 0 13 54 15 380 15 254 0 380
-3 380 -10z m150 -350 l0 -360 -27 0 c-17 1 -43 14 -65 33 l-37 32 40 315 c21
173 39 321 39 328 0 6 11 12 25 12 l25 0 0 -360z m124 333 c3 -16 22 -162 42
-327 l37 -299 -39 -33 c-23 -20 -50 -33 -66 -34 l-28 0 0 360 0 360 24 0 c19
0 26 -7 30 -27z m831 2 c0 -13 -97 -98 -319 -277 -175 -142 -321 -258 -325
-258 -4 0 -24 116 -45 258 -21 141 -40 267 -43 280 l-5 22 368 -2 c359 -3 369
-4 369 -23z m-1230 -842 c-3 -16 -14 -89 -26 -163 -11 -74 -21 -135 -22 -136
-2 -1 -442 252 -495 284 -7 5 -10 16 -6 25 6 15 32 17 280 17 l274 0 -5 -27z
m275 -229 l0 -256 -42 25 c-24 13 -69 39 -101 57 -57 32 -58 33 -53 69 3 20
13 95 21 166 9 72 18 145 21 163 l5 32 74 0 75 0 0 -256z m251 60 l23 -196
-22 -16 c-12 -10 -58 -36 -102 -60 l-80 -43 0 255 0 256 79 0 78 0 24 -196z
m617 171 c10 -22 9 -27 -11 -39 -70 -44 -448 -256 -457 -256 -5 0 -10 6 -10
13 0 6 -9 71 -20 142 -11 72 -20 138 -20 148 0 16 19 17 253 17 l254 0 11 -25z
m-915 -545 c8 -7 -160 -110 -178 -110 -7 0 0 110 11 177 l6 31 76 -45 c43 -26
81 -49 85 -53z m346 -11 c7 -56 11 -102 9 -104 -2 -1 -47 22 -101 53 l-98 55
28 17 c15 9 51 31 78 48 28 17 55 31 61 31 6 1 16 -40 23 -100z m-154 -99
l100 -60 -204 0 c-112 0 -201 3 -197 7 12 13 181 111 191 112 6 0 55 -27 110
-59z m144 -124 c-24 -23 -265 -206 -270 -206 -7 0 -226 167 -259 196 -12 12
29 14 260 14 150 0 271 -2 269 -4z m75 -280 c14 -116 24 -211 22 -213 -4 -4
-300 226 -303 235 -3 11 241 202 248 194 4 -4 18 -101 33 -216z m-512 108 c51
-42 93 -81 93 -87 0 -10 -246 -210 -251 -204 -3 3 34 320 42 355 6 27 0 30
116 -64z m349 -280 c98 -80 179 -147 179 -150 0 -2 -158 -4 -351 -4 -322 0
-350 1 -347 17 2 13 323 283 336 283 2 0 84 -65 183 -146z m209 -248 c0 -8
-370 -316 -380 -316 -15 0 -354 290 -358 306 -3 12 57 14 367 14 204 0 371 -2
371 -4z m-855 -423 c-25 -204 -45 -373 -45 -377 0 -3 -13 -6 -30 -6 -16 0 -30
4 -30 8 0 5 25 178 55 386 30 207 55 382 55 388 0 7 9 3 20 -8 l21 -21 -46
-370z m955 404 c0 -2 25 -176 55 -387 30 -211 55 -387 55 -392 0 -10 -47 -11
-54 0 -2 4 -25 175 -51 381 -35 287 -43 376 -34 387 10 12 29 19 29 11z m-682
-226 c78 -68 142 -125 142 -126 0 -8 -382 -326 -386 -322 -3 3 12 138 32 301
34 265 39 294 53 283 9 -8 80 -69 159 -136z m592 137 c0 -6 16 -135 36 -286
19 -151 34 -283 32 -294 -2 -15 -40 13 -183 132 -99 84 -188 160 -198 169 -18
17 -12 23 140 154 87 75 161 137 166 137 4 0 7 -5 7 -12z m-148 -519 c136
-118 236 -212 240 -225 l6 -24 -480 0 -479 0 3 27 c2 22 51 69 232 225 126
109 233 198 237 198 4 0 113 -91 241 -201z m258 -337 c0 -13 -72 -67 -243
-180 -133 -89 -246 -162 -251 -162 -17 0 -496 323 -496 335 0 6 3 15 7 18 3 4
226 7 495 7 468 0 488 -1 488 -18z m-1061 -46 c11 -13 5 -80 -30 -366 l-42
-351 -45 -31 -45 -31 5 34 c3 19 29 201 59 406 47 329 55 370 69 363 9 -5 22
-16 29 -24z m1237 -370 c30 -214 53 -391 50 -394 -3 -3 -23 6 -43 20 l-38 25
-42 349 -43 349 27 22 c15 12 29 21 30 19 2 -1 28 -177 59 -390z m-959 178
c114 -75 212 -140 217 -145 4 -4 -107 -84 -249 -179 -141 -94 -259 -170 -261
-168 -2 3 14 143 36 313 22 170 40 311 40 312 0 8 24 -7 217 -133z m839 -202
c19 -156 34 -286 32 -288 -2 -2 -120 74 -261 168 l-258 172 218 142 218 143 7
-27 c4 -15 24 -155 44 -310z m-246 -190 c171 -114 296 -204 298 -214 3 -17
-31 -18 -602 -18 -333 0 -606 4 -606 8 0 5 6 15 13 24 12 16 587 398 597 397
3 0 138 -89 300 -197z m-980 -417 l0 -45 -45 0 c-48 0 -52 7 -39 57 6 20 17
25 72 32 8 1 12 -14 12 -44z m-1439 -321 c18 -16 18 -19 3 -35 -15 -16 -19
-17 -37 -4 -65 45 -114 -33 -73 -114 14 -26 21 -28 92 -34 42 -4 159 -7 258
-7 l182 0 -1 60 c0 52 3 63 28 87 25 26 34 28 100 28 91 0 151 -31 248 -126
57 -57 74 -68 113 -73 36 -6 46 -11 46 -27 0 -15 -7 -19 -35 -19 -31 0 -35 -3
-35 -25 0 -47 -21 -380 -25 -391 -2 -6 -14 -10 -27 -7 l-23 4 7 132 c5 97 4
133 -5 139 -14 9 -129 11 -151 2 -8 -3 -20 -21 -26 -39 -16 -49 3 -108 51
-159 l39 -43 -21 -19 c-21 -19 -21 -19 -56 21 -48 55 -73 111 -73 168 0 101
47 134 175 124 l72 -7 7 47 c3 25 5 48 3 49 -4 4 -341 23 -345 19 -2 -2 -7
-97 -10 -212 l-7 -208 -25 0 -25 0 4 213 4 212 -62 0 -61 0 0 -210 0 -210 -25
0 c-24 0 -25 3 -25 56 0 55 0 55 -22 40 -32 -23 -104 -20 -143 4 -90 55 -85
199 8 243 45 22 74 21 120 -2 l37 -19 0 49 0 49 -52 1 c-29 0 -106 3 -170 5
l-117 5 6 -215 6 -216 -26 0 c-26 0 -27 2 -27 59 0 32 -3 73 -6 90 -7 34 -23
38 -118 25 -43 -6 -46 -9 -46 -36 0 -55 -53 -42 -103 25 -17 22 -18 29 -7 42
7 8 24 15 38 15 25 0 25 1 18 61 -3 34 -6 79 -6 100 0 35 -3 39 -25 39 -19 0
-25 -5 -25 -23 0 -13 5 -28 11 -34 8 -8 8 -17 -1 -33 l-12 -22 -24 23 c-53 50
-17 139 56 139 61 0 74 -24 78 -146 4 -87 7 -104 19 -100 8 3 45 6 81 6 l67 0
-3 112 c-3 86 -8 123 -23 154 -21 44 -25 114 -9 144 26 49 118 63 161 24z
m-839 -63 c74 -19 136 -46 228 -99 42 -25 43 -27 20 -33 -17 -5 -3 -7 38 -8
60 -1 63 -2 60 -23 -3 -20 -10 -23 -54 -26 l-50 -3 4 -58 4 -58 -77 -8 c-112
-10 -148 -51 -110 -124 17 -34 33 -41 91 -41 39 0 44 3 44 23 0 33 27 67 54
67 48 0 61 -48 25 -95 -21 -25 -21 -28 -6 -60 9 -19 28 -42 42 -51 29 -19 29
-22 10 -47 -18 -24 -38 -13 -74 41 l-28 42 -31 -44 c-39 -54 -108 -91 -152
-81 -30 7 -70 47 -70 71 0 9 -12 14 -36 14 -78 0 -125 101 -72 157 42 45 118
20 118 -39 0 -22 -38 -25 -46 -3 -4 8 -15 15 -25 15 -14 0 -19 -7 -19 -29 0
-38 22 -55 62 -47 74 15 73 15 70 -31 -3 -34 1 -44 18 -53 29 -15 84 13 116
59 l24 36 -42 6 c-90 11 -138 63 -138 147 0 70 38 99 153 117 33 5 37 9 37 35
0 28 -2 30 -39 30 -52 0 -414 -29 -418 -34 -2 -2 5 -93 17 -202 11 -109 20
-204 20 -211 0 -20 -48 -16 -54 5 -2 9 -12 104 -22 211 l-18 193 -54 -5 c-30
-3 -57 -8 -60 -11 -3 -3 6 -97 20 -209 14 -111 24 -203 23 -204 0 -2 -12 -4
-26 -5 -23 -3 -24 0 -38 100 -11 82 -17 102 -30 102 -45 -1 -164 -21 -182 -31
-21 -11 -21 -11 7 -41 16 -17 54 -49 85 -72 53 -40 55 -43 41 -64 -13 -20 -15
-21 -40 -4 -60 37 -116 89 -173 160 -59 74 -60 75 -39 89 20 14 23 13 41 -6
55 -58 93 23 51 109 -21 42 -40 47 -139 30 -88 -15 -84 6 -44 -245 29 -184 28
-194 -10 -195 -12 0 -20 30 -38 148 -12 81 -27 175 -32 209 l-11 61 -32 -5
c-25 -4 -35 -1 -40 12 -9 25 1 35 36 35 25 0 29 3 23 18 -35 80 -27 125 28
166 23 17 43 21 100 21 60 0 83 -5 141 -33 38 -17 90 -48 116 -67 53 -39 58
-40 181 -23 79 10 87 13 78 29 -14 28 -11 102 7 127 43 61 190 80 336 43z
m3028 -107 c24 -21 28 -29 19 -40 -15 -18 -33 -18 -49 1 -18 22 -67 19 -80 -4
-15 -29 -12 -104 6 -129 9 -13 26 -22 40 -22 25 0 465 -83 617 -117 69 -15 78
-19 75 -37 -2 -17 -10 -21 -38 -21 l-35 0 -44 -202 c-35 -158 -48 -203 -60
-203 -38 1 -38 14 6 210 23 107 41 200 39 206 -3 9 -106 38 -111 32 -1 -2 -20
-95 -42 -208 -39 -203 -39 -205 -63 -202 -14 2 -26 5 -28 6 -1 2 10 60 24 130
14 70 23 130 21 133 -7 7 -81 23 -85 18 -2 -2 1 -12 7 -23 6 -12 11 -39 11
-62 0 -84 -89 -128 -166 -81 -38 23 -72 89 -84 167 -16 96 -14 114 14 114 22
0 24 -5 31 -67 15 -143 78 -220 137 -166 30 27 16 97 -26 132 -9 8 -16 22 -16
32 0 23 18 24 115 5 39 -8 72 -13 73 -11 7 6 23 88 19 92 -4 4 -307 64 -392
77 l-40 7 -31 -206 c-18 -113 -34 -209 -37 -211 -3 -3 -15 -3 -27 1 -20 6 -21
11 -14 63 16 115 16 116 -41 124 -27 4 -64 10 -82 13 -30 5 -32 4 -35 -27 -2
-22 -9 -34 -21 -36 -37 -7 -97 77 -83 114 4 12 15 15 36 12 17 -3 30 -2 30 1
0 3 7 46 15 96 8 49 13 91 11 92 -9 9 -356 57 -361 51 -1 -2 -5 -30 -9 -62 -6
-58 -6 -59 12 -43 45 41 118 29 153 -25 41 -67 5 -174 -73 -214 -30 -15 -32
-15 -45 2 -19 26 -17 30 22 54 39 24 68 70 63 102 -2 12 -15 30 -29 40 -24 18
-29 19 -55 5 -55 -29 -63 -46 -76 -165 -11 -113 -15 -120 -51 -106 -12 4 -14
17 -10 61 6 53 5 56 -13 48 -69 -29 -133 -5 -165 62 -37 77 -5 161 71 184 36
11 44 10 89 -14 l49 -25 4 51 c2 29 4 53 4 54 -1 1 -48 6 -106 13 -143 15
-150 17 -150 40 0 17 7 20 43 19 64 0 501 -55 685 -85 89 -15 164 -25 166 -23
3 2 1 22 -3 44 -16 90 25 155 99 155 27 0 48 -8 70 -26z m-1502 -902 l43 -7
-156 -78 -156 -78 -162 72 c-89 39 -173 77 -187 85 -21 11 18 13 275 13 165 0
319 -4 343 -7z m-521 -97 c117 -52 224 -97 237 -101 17 -4 80 22 230 95 l207
100 71 -6 71 -6 -274 -138 c-151 -76 -281 -138 -290 -138 -24 -1 -606 257
-633 281 -6 4 30 8 79 8 l89 0 213 -95z"/>
<path d="M3530 9820 c0 -38 2 -40 29 -40 47 0 81 17 81 40 0 23 -34 40 -81 40
-27 0 -29 -2 -29 -40z"/>
<path d="M4500 9821 c0 -39 2 -41 29 -41 46 0 81 17 81 39 0 25 -8 30 -64 37
l-46 7 0 -42z"/>
<path d="M5350 9754 l0 -97 48 7 c58 8 72 25 72 91 0 71 -19 95 -76 95 l-44 0
0 -96z"/>
<path d="M5644 9847 c-10 -27 0 -62 19 -65 37 -7 86 8 92 29 9 28 -3 38 -58
45 -37 5 -48 3 -53 -9z"/>
<path d="M5967 9776 l-16 -46 39 0 39 0 -15 38 c-24 56 -30 58 -47 8z"/>
<path d="M6627 9775 l-16 -45 38 0 39 0 -17 45 c-9 25 -19 45 -22 45 -4 0 -14
-20 -22 -45z"/>
<path d="M8350 9820 l0 -43 52 6 c44 6 68 18 68 37 0 19 -24 31 -68 37 l-52 6
0 -43z"/>
<path d="M2680 9350 c-15 -15 -20 -33 -20 -75 0 -42 5 -60 20 -75 20 -20 74
-27 96 -12 38 25 47 125 14 160 -27 29 -83 29 -110 2z"/>
<path d="M4751 9356 c-36 -43 -31 -145 9 -166 61 -33 120 9 120 85 0 60 -29
95 -80 95 -20 0 -43 -6 -49 -14z"/>
<path d="M5310 9350 c-15 -15 -20 -33 -20 -69 0 -64 28 -101 76 -101 52 0 74
28 74 95 0 67 -22 95 -75 95 -22 0 -43 -8 -55 -20z"/>
<path d="M6390 9350 c-15 -15 -20 -33 -20 -73 0 -66 24 -97 75 -97 51 0 75 31
75 97 0 65 -23 93 -75 93 -22 0 -43 -8 -55 -20z"/>
<path d="M6690 9276 l0 -96 43 0 c60 0 77 21 77 91 0 71 -14 90 -73 96 l-47 6
0 -97z"/>
<path d="M7696 9300 c-21 -52 -22 -50 18 -50 l35 0 -16 45 c-8 25 -16 45 -18
45 -1 0 -10 -18 -19 -40z"/>
<path d="M8180 9340 c0 -29 1 -30 50 -30 36 0 52 4 56 15 10 26 -16 45 -62 45
-42 0 -44 -1 -44 -30z"/>
<path d="M8180 9214 l0 -35 51 3 c95 6 93 68 -2 68 l-49 0 0 -36z"/>
<path d="M8760 9335 l0 -35 54 0 c46 0 56 3 61 20 11 33 -12 50 -66 50 l-49 0
0 -35z"/>
<path d="M9343 9315 c-6 -17 -14 -38 -18 -47 -6 -15 -1 -18 29 -18 41 0 41 0
17 55 l-18 39 -10 -29z"/>
<path d="M5615 7469 c-562 -58 -1040 -350 -1326 -809 -215 -347 -317 -809
-264 -1200 80 -600 432 -1099 950 -1350 562 -273 1181 -232 1708 113 165 108
387 308 387 349 0 16 -20 1 -84 -64 -368 -373 -839 -567 -1320 -545 -835 38
-1493 646 -1610 1486 -63 450 75 972 353 1336 413 541 1153 784 1847 605 188
-49 378 -141 549 -267 67 -50 85 -59 85 -44 0 51 -393 275 -575 326 -206 59
-496 86 -700 64z"/>
<path d="M7074 7268 c-26 -66 -52 -122 -56 -124 -4 -3 -8 -13 -8 -24 0 -18 19
-30 48 -30 15 0 15 1 0 16 -14 14 -12 23 19 97 69 163 73 175 59 180 -9 4 -29
-33 -62 -115z"/>
<path d="M5795 7360 c3 -5 10 -10 16 -10 5 0 9 5 9 10 0 6 -7 10 -16 10 -8 0
-12 -4 -9 -10z"/>
<path d="M5693 7333 c-25 -9 -14 -41 18 -52 38 -13 29 -35 -12 -26 -19 4 -29
3 -29 -5 0 -7 16 -10 42 -8 55 4 66 33 19 51 -40 15 -40 27 0 27 17 0 28 4 24
10 -6 10 -41 12 -62 3z"/>
<path d="M5796 7314 c-12 -31 -7 -74 9 -74 11 0 15 12 15 45 0 45 -12 60 -24
29z"/>
<path d="M5857 7287 c-3 -23 -3 -45 -1 -49 10 -16 24 3 24 32 0 24 5 31 26 36
33 8 46 -10 37 -55 -4 -26 -3 -33 8 -29 8 3 15 22 17 46 4 47 -11 60 -69 60
-35 0 -37 -2 -42 -41z"/>
<path d="M5472 7313 c-23 -5 -23 -4 -7 -76 8 -40 28 -22 21 19 -6 27 -3 35 14
44 28 15 50 -3 50 -41 0 -20 5 -29 16 -29 13 0 15 7 9 37 -4 21 -9 41 -11 45
-5 8 -52 9 -92 1z"/>
<path d="M5225 7289 c-10 -15 3 -25 16 -12 7 7 7 13 1 17 -6 3 -14 1 -17 -5z"/>
<path d="M5334 7286 c-44 -19 -56 -53 -28 -80 22 -22 66 -20 98 5 31 25 33 42
6 69 -23 23 -34 24 -76 6z m54 -15 c8 -4 12 -19 10 -32 -2 -20 -9 -24 -38 -24
-29 0 -36 4 -38 23 -2 16 3 25 20 31 29 12 30 12 46 2z"/>
<path d="M6006 7278 c-17 -24 -8 -51 24 -68 24 -13 60 -13 60 0 0 6 -10 10
-23 10 -27 0 -47 17 -47 41 0 22 30 32 66 23 19 -5 25 -4 20 5 -4 6 -25 11
-46 11 -28 0 -43 -6 -54 -22z"/>
<path d="M6118 7244 c-11 -24 -9 -29 15 -50 28 -24 87 -33 87 -14 0 6 -11 10
-24 10 -34 0 -56 10 -56 25 0 11 8 10 45 -1 44 -13 45 -13 45 9 0 33 -19 47
-62 47 -32 0 -41 -5 -50 -26z m91 0 c2 -2 2 -6 -1 -9 -9 -10 -58 6 -52 16 5 9
41 3 53 -7z"/>
<path d="M5155 7243 c-4 -13 -11 -23 -16 -23 -5 0 -9 -5 -9 -11 0 -6 6 -9 14
-6 8 3 19 -8 29 -29 17 -35 24 -38 51 -28 22 8 20 23 -2 18 -25 -7 -46 48 -23
64 14 9 13 11 -6 11 -12 1 -24 7 -26 14 -4 7 -8 3 -12 -10z"/>
<path d="M5238 7254 c-9 -8 22 -94 33 -94 12 0 11 15 -3 61 -11 38 -18 46 -30
33z"/>
<path d="M6345 7220 c3 -5 13 -10 21 -10 19 0 18 -13 -6 -60 -11 -22 -16 -41
-10 -45 9 -6 26 21 53 88 l16 37 -40 0 c-24 0 -38 -4 -34 -10z"/>
<path d="M5080 7193 c-21 -8 -50 -34 -50 -45 0 -5 10 -2 22 6 38 27 56 18 21
-10 -59 -46 -32 -81 38 -48 45 22 46 27 19 72 -20 33 -24 35 -50 25z m40 -58
c0 -18 -36 -38 -52 -29 -7 4 -2 13 13 25 29 23 39 24 39 4z"/>
<path d="M6443 7179 c-27 -27 -7 -65 42 -84 20 -7 19 -7 -2 -17 -17 -8 -28 -7
-48 6 -25 17 -36 7 -12 -12 28 -24 64 -24 90 0 35 32 41 60 20 87 -22 26 -73
37 -90 20z m61 -15 c23 -9 21 -54 -2 -54 -10 0 -23 5 -30 12 -30 30 -8 57 32
42z"/>
<path d="M4945 7160 c-3 -6 2 -22 13 -38 35 -50 35 -50 -39 -35 -46 10 -75 11
-81 5 -12 -12 50 -112 70 -112 17 0 15 6 -13 47 -13 20 -23 38 -21 40 2 2 35
-2 74 -9 39 -6 74 -9 77 -6 6 5 -63 118 -71 118 -1 0 -6 -5 -9 -10z"/>
<path d="M6584 7095 c-16 -24 -15 -26 10 -46 14 -11 26 -27 26 -35 0 -19 -44
-18 -60 1 -7 8 -18 15 -24 15 -6 0 2 -12 17 -25 34 -30 72 -32 87 -5 9 17 6
25 -15 46 -15 15 -24 33 -21 41 5 12 12 11 41 -7 19 -12 35 -17 35 -12 0 10
-60 52 -73 52 -4 0 -14 -11 -23 -25z"/>
<path d="M6680 7000 c-27 -27 -26 -75 2 -94 28 -20 62 -20 78 -1 10 12 9 20
-5 41 -9 15 -26 29 -36 31 -10 3 -16 9 -13 14 9 15 46 10 66 -8 10 -9 21 -13
26 -9 12 13 -38 46 -69 46 -16 0 -38 -9 -49 -20z m48 -42 c19 -19 15 -48 -7
-48 -24 0 -45 25 -37 45 7 18 27 20 44 3z"/>
<path d="M4719 6941 c-16 -16 -29 -36 -29 -45 0 -21 28 -46 51 -46 21 0 69 42
69 60 0 17 -11 12 -32 -15 -18 -23 -48 -34 -48 -17 0 4 16 20 36 36 35 27 36
30 19 43 -26 18 -33 17 -66 -16z m20 -27 c-13 -14 -25 -20 -27 -14 -5 15 17
40 36 40 12 0 10 -6 -9 -26z"/>
<path d="M4610 6833 c-16 -20 -23 -24 -32 -15 -13 13 -38 16 -38 5 0 -5 23
-28 51 -52 35 -30 54 -40 61 -33 7 7 2 16 -16 28 -30 19 -32 50 -4 68 13 8 22
5 42 -13 13 -13 29 -20 35 -16 13 8 -40 55 -62 55 -9 0 -25 -12 -37 -27z"/>
<path d="M4543 6758 c-4 -7 -14 -13 -20 -13 -7 0 -13 -3 -13 -7 0 -5 0 -18 0
-30 0 -17 3 -19 12 -10 8 8 18 6 40 -10 l30 -21 21 21 c11 12 18 25 13 29 -4
4 -11 1 -16 -7 -7 -12 -12 -12 -34 0 -20 10 -24 18 -20 37 7 25 0 31 -13 11z"/>
<path d="M6543 6637 c-243 -62 -444 -115 -448 -119 -4 -3 1 -35 9 -70 9 -34
43 -181 75 -326 l59 -263 -19 -66 c-21 -73 -48 -245 -50 -314 l-2 -44 -8 35
c-9 38 -8 35 8 -150 8 -80 8 -75 14 100 6 173 31 350 56 395 5 8 46 -158 102
-407 76 -342 91 -422 80 -429 -7 -4 -45 -13 -84 -19 -109 -17 -108 -19 5 -16
121 4 193 26 280 83 73 48 218 190 286 281 58 76 74 87 74 50 1 -86 105 -518
120 -501 14 15 156 880 177 1072 6 59 5 61 -21 70 -31 12 -30 9 -10 164 32
244 -5 452 -92 511 -21 14 -39 24 -40 23 -2 -1 6 -36 17 -77 10 -40 19 -80 19
-87 0 -10 -46 -13 -230 -13 -126 0 -230 3 -230 8 1 19 211 154 295 188 49 21
58 35 23 33 -13 0 -222 -51 -465 -112z m355 46 c-48 -25 -122 -72 -165 -105
l-78 -58 -250 1 c-137 0 -243 3 -235 7 24 9 783 200 800 201 8 0 -24 -20 -72
-46z m-336 -258 c-123 -129 -232 -306 -292 -473 -13 -34 -25 -61 -27 -59 -2 2
-28 114 -58 248 -30 134 -61 272 -69 307 l-14 62 270 0 270 0 -80 -85z m603 4
c19 -209 -50 -531 -174 -819 -103 -239 -321 -510 -473 -590 -37 -19 -69 -33
-72 -30 -2 3 -48 200 -100 437 l-96 433 26 72 c66 184 171 354 302 490 l85 88
247 0 248 0 7 -81z"/>
<path d="M4440 6596 c0 -7 -7 -19 -15 -26 -23 -19 -19 -77 6 -91 29 -15 67 3
75 36 3 14 10 25 15 25 14 0 10 -34 -7 -58 -23 -34 -10 -38 15 -6 14 18 21 39
19 58 -2 26 -11 35 -48 53 -53 26 -60 27 -60 9z m50 -26 c11 -7 12 -15 4 -37
-13 -37 -57 -40 -62 -5 -6 40 25 63 58 42z"/>
<path d="M7319 6526 c37 -78 51 -93 51 -53 0 29 -39 96 -66 114 -19 12 -17 4
15 -61z"/>
<path d="M4356 6448 c-7 -13 -16 -35 -20 -50 -5 -23 -2 -30 23 -43 33 -17 61
-20 61 -6 0 5 -14 14 -31 21 -24 10 -29 18 -27 39 3 27 25 32 76 16 37 -12 25
13 -14 30 -47 20 -51 19 -68 -7z"/>
<path d="M8420 6091 l0 -271 -81 0 c-80 0 -81 0 -75 -22 4 -13 17 -95 31 -183
14 -88 36 -225 49 -305 14 -81 27 -164 30 -185 2 -22 9 -65 15 -95 6 -30 13
-77 16 -105 8 -70 65 -427 71 -445 3 -10 15 2 36 35 17 28 32 52 34 54 2 3 18
-9 35 -25 59 -55 73 -124 43 -219 -8 -27 -24 -101 -34 -163 -11 -62 -24 -122
-30 -132 -7 -14 -2 -65 17 -185 23 -136 31 -169 47 -177 10 -5 61 -10 114 -11
l96 -1 131 136 c211 217 314 355 413 553 34 68 47 102 39 106 -7 3 -88 11
-182 18 -93 6 -222 19 -286 28 l-116 16 -47 94 -46 94 32 -5 c70 -12 719 -56
729 -50 7 4 29 93 66 264 16 74 18 134 18 481 l0 396 -164 7 c-90 3 -204 6
-253 6 l-88 0 0 120 0 120 -50 0 -50 0 0 -117 0 -118 -147 2 c-82 2 -190 6
-240 9 l-93 6 -2 266 -3 267 -37 3 -38 3 0 -270z"/>
<path d="M4275 6339 c-10 -15 3 -25 16 -12 7 7 7 13 1 17 -6 3 -14 1 -17 -5z"/>
<path d="M6104 6260 c0 -52 1 -74 3 -47 2 26 2 68 0 95 -2 26 -3 4 -3 -48z"/>
<path d="M4310 6320 c0 -9 62 -40 81 -40 22 0 6 22 -26 36 -40 17 -55 18 -55
4z"/>
<path d="M4290 6280 c0 -8 12 -26 27 -42 28 -29 27 -30 -29 -42 -44 -10 -35
-29 10 -22 87 16 90 24 32 81 -22 22 -40 33 -40 25z"/>
<path d="M4250 6131 c0 -11 -2 -26 -6 -34 -4 -10 7 -17 37 -25 24 -6 47 -9 51
-6 13 8 -1 24 -22 24 -25 0 -51 27 -44 45 4 8 1 15 -5 15 -6 0 -11 -9 -11 -19z"/>
<path d="M6113 6020 c0 -36 2 -50 4 -32 2 17 2 47 0 65 -2 17 -4 3 -4 -33z"/>
<path d="M4230 6024 c-20 -23 -16 -75 5 -90 26 -19 42 -17 65 6 21 21 29 90
10 90 -5 0 -10 -11 -10 -24 0 -32 -10 -56 -22 -56 -7 0 -8 17 -5 45 6 39 4 45
-12 45 -10 0 -24 -7 -31 -16z m30 -21 c0 -10 -4 -24 -9 -31 -7 -11 -9 -11 -14
2 -7 19 1 46 14 46 5 0 9 -8 9 -17z"/>
<path d="M4830 5977 c0 -30 -7 -71 -15 -90 -8 -20 -12 -48 -9 -65 5 -26 13
-31 65 -46 32 -9 63 -16 69 -16 6 0 10 27 10 64 l0 64 342 -87 c206 -53 345
-93 350 -102 8 -14 158 -639 158 -659 0 -8 -54 -9 -190 -4 -104 4 -190 5 -190
2 0 -3 9 -50 20 -103 11 -53 20 -108 20 -121 0 -21 5 -23 58 -26 l57 -3 3
-117 3 -118 214 0 215 0 0 163 0 164 -107 6 c-58 4 -150 7 -204 7 -100 0 -129
10 -129 46 0 12 29 14 170 14 94 0 170 2 170 5 0 18 -204 822 -211 829 -6 7
-632 186 -846 242 -22 6 -23 3 -23 -49z"/>
<path d="M4252 5903 c-7 -3 -22 -23 -33 -44 -23 -46 -43 -42 -37 7 2 21 0 33
-6 31 -19 -6 -19 -73 0 -91 19 -20 37 -9 60 36 8 15 22 28 31 28 13 0 15 -8
10 -40 -3 -22 -2 -40 3 -40 8 0 20 35 20 61 0 23 -32 58 -48 52z"/>
<path d="M6123 5850 c0 -30 2 -43 4 -27 2 15 2 39 0 55 -2 15 -4 2 -4 -28z"/>
<path d="M4385 5837 c-4 -30 -2 -122 4 -203 l11 -148 -59 -66 -59 -66 13 -155
c8 -85 14 -168 15 -184 0 -28 5 -33 65 -55 60 -22 64 -26 67 -58 3 -31 8 -36
58 -58 46 -19 72 -23 163 -24 107 0 108 0 105 -22 -3 -23 -3 -23 -225 -26
-123 -1 -223 -6 -223 -10 0 -19 166 -225 237 -293 l78 -77 463 -6 462 -6 0
195 0 195 -217 2 c-218 3 -218 3 -221 26 l-3 22 160 0 c111 0 161 3 161 11 0
26 -161 804 -168 810 -5 4 -621 180 -864 246 -13 4 -18 -5 -23 -50z m482 -176
c189 -42 346 -80 349 -83 8 -9 117 -668 111 -674 -7 -8 -721 17 -728 25 -5 5
-90 765 -89 799 0 6 3 12 8 12 4 0 161 -36 349 -79z"/>
<path d="M6133 5710 c0 -25 2 -35 4 -22 2 12 2 32 0 45 -2 12 -4 2 -4 -23z"/>
<path d="M6143 5585 c0 -22 2 -30 4 -17 2 12 2 30 0 40 -3 9 -5 -1 -4 -23z"/>
<path d="M6183 5185 c0 -22 2 -30 4 -17 2 12 2 30 0 40 -3 9 -5 -1 -4 -23z"/>
<path d="M6192 5110 c0 -19 2 -27 5 -17 2 9 2 25 0 35 -3 9 -5 1 -5 -18z"/>
<path d="M6202 5050 c0 -14 2 -19 5 -12 2 6 2 18 0 25 -3 6 -5 1 -5 -13z"/>
<path d="M6860 7749 c14 -11 72 -53 130 -94 128 -89 185 -134 185 -145 0 -17
17 -24 25 -10 6 8 10 18 10 22 0 11 -180 142 -271 196 -89 54 -123 67 -79 31z"/>
<path d="M7030 6933 c0 -14 155 -173 169 -173 14 0 -18 44 -95 129 -41 45 -74
65 -74 44z"/>
<path d="M7198 6928 c9 -9 15 -9 24 0 9 9 7 12 -12 12 -19 0 -21 -3 -12 -12z"/>
<path d="M7821 6736 c-1 -21 6 -65 15 -98 14 -54 14 -62 0 -77 -17 -18 -21
-41 -8 -41 4 0 18 9 31 19 24 18 24 20 12 76 -7 31 -21 80 -31 108 l-19 52 0
-39z"/>
<path d="M7568 6364 c-27 -20 -48 -42 -48 -50 0 -8 2 -14 5 -14 15 0 114 83
109 91 -8 14 -16 11 -66 -27z"/>
<path d="M7560 6124 c0 -35 52 -68 168 -105 55 -17 75 -20 84 -11 9 9 8 12 -3
16 -185 59 -209 69 -214 87 -6 17 -35 28 -35 13z"/>
<path d="M7931 5966 c-9 -11 -3 -16 34 -26 24 -7 47 -20 49 -29 5 -15 26 -164
26 -180 0 -4 12 -13 26 -20 l26 -11 -7 62 c-4 34 -13 67 -20 74 -7 7 -15 35
-19 62 -6 49 -8 51 -53 66 -56 19 -48 19 -62 2z"/>
<path d="M7480 5891 c0 -132 1 -142 16 -130 15 12 16 30 11 133 -9 176 -27
174 -27 -3z"/>
<path d="M7483 5609 c-16 -16 -17 -59 -3 -59 14 0 22 23 18 50 -2 17 -5 19
-15 9z"/>
<path d="M8040 5565 c0 -8 7 -15 16 -15 14 0 14 3 4 15 -7 8 -14 15 -16 15 -2
0 -4 -7 -4 -15z"/>
<path d="M7450 5421 c0 -11 5 -23 10 -26 6 -3 10 1 10 9 0 9 0 19 1 23 0 4 -4
9 -10 11 -6 2 -11 -5 -11 -17z"/>
<path d="M8025 5428 c-2 -7 -5 -26 -8 -41 l-5 -29 35 34 c30 29 31 33 16 40
-27 10 -33 9 -38 -4z"/>
<path d="M7807 5305 c-93 -24 -170 -45 -172 -47 -2 -2 26 -26 62 -55 l65 -51
91 76 c51 43 106 87 122 99 40 30 28 28 -168 -22z"/>
<path d="M7232 4833 c-20 -53 -25 -76 -13 -69 11 7 35 85 28 92 -2 3 -9 -8
-15 -23z"/>
<path d="M8251 5144 c0 -11 3 -14 6 -6 3 7 2 16 -1 19 -3 4 -6 -2 -5 -13z"/>
<path d="M8256 5083 c10 -40 14 -41 14 -5 0 18 -5 32 -10 32 -6 0 -8 -11 -4
-27z"/>
<path d="M8272 4995 c0 -16 2 -22 5 -12 2 9 2 23 0 30 -3 6 -5 -1 -5 -18z"/>
<path d="M8278 4949 c-5 -15 28 -278 36 -286 16 -17 16 17 -3 148 -21 143 -25
161 -33 138z"/>
<path d="M7396 5229 c-9 -34 -19 -82 -22 -108 l-5 -46 15 33 c17 35 56 158 56
173 0 5 -6 9 -13 9 -8 0 -21 -25 -31 -61z"/>
<path d="M7491 5198 c-5 -13 -19 -56 -32 -95 l-23 -73 44 -37 c24 -21 47 -38
50 -38 4 0 36 27 73 61 l67 61 -51 44 c-29 24 -64 56 -79 72 -34 33 -38 33
-49 5z"/>
<path d="M8029 5230 c-52 -44 -114 -97 -138 -117 l-44 -37 24 -19 c13 -10 53
-45 89 -77 134 -120 235 -201 238 -191 2 5 -2 43 -8 83 -6 40 -22 154 -35 252
-14 98 -26 181 -28 183 -2 2 -46 -33 -98 -77z"/>
<path d="M7685 4939 c-33 -28 -61 -55 -63 -58 -1 -4 38 -40 88 -81 100 -82 97
-75 54 -162 l-24 -48 25 0 c19 0 29 9 45 39 18 36 23 39 52 36 56 -8 310 -26
313 -23 6 7 -394 343 -411 346 -11 1 -44 -19 -79 -49z"/>
<path d="M7619 4409 c-30 -39 -60 -79 -67 -88 -11 -16 -5 -22 48 -55 34 -21
62 -36 64 -35 1 2 16 51 34 109 18 58 36 113 39 123 4 14 -1 17 -29 17 -32 0
-41 -7 -89 -71z"/>
<path d="M8190 4460 c0 -17 3 -19 19 -10 32 16 34 30 7 30 -19 0 -26 -5 -26
-20z"/>
<path d="M7150 4312 c0 -4 -11 -79 -24 -167 -14 -88 -22 -163 -20 -167 13 -20
33 -5 38 30 6 39 36 282 36 293 0 9 -30 20 -30 11z"/>
<path d="M8352 4421 c-11 -6 -11 -28 -1 -117 13 -119 24 -147 34 -90 10 53
-16 218 -33 207z"/>
<path d="M8450 3750 c0 -11 4 -20 9 -20 5 0 7 9 4 20 -3 11 -7 20 -9 20 -2 0
-4 -9 -4 -20z"/>
<path d="M7246 4122 c-10 -75 -20 -145 -23 -155 -5 -20 0 -22 92 -42 l70 -14
112 111 112 112 -72 48 -71 47 -27 -25 -27 -26 -75 41 -74 41 -17 -138z"/>
<path d="M8197 4316 c-26 -18 -50 -35 -52 -37 -2 -3 -26 -73 -53 -156 l-49
-152 76 -51 c43 -27 82 -50 88 -50 17 0 82 77 89 105 3 14 -1 88 -10 163 -23
186 -28 212 -35 211 -3 0 -28 -15 -54 -33z"/>
<path d="M7941 3876 l-22 -24 96 -32 c53 -18 98 -30 101 -28 4 4 -28 27 -127
91 -24 16 -26 16 -48 -7z"/>
<path d="M6140 3023 c-16 -21 -20 -37 -16 -62 3 -18 7 -36 10 -39 3 -2 38 -6
78 -8 40 -2 114 -6 163 -9 l90 -5 -50 45 c-66 60 -156 105 -211 105 -35 0 -47
-5 -64 -27z"/>
<path d="M5775 2748 c-33 -18 -45 -40 -45 -83 0 -100 131 -120 169 -26 19 43
10 73 -28 98 -37 25 -65 28 -96 11z"/>
<path d="M4563 3005 c-45 -19 -58 -48 -43 -97 l11 -40 47 6 c26 3 136 11 245
17 108 7 197 16 197 21 0 13 -137 75 -205 93 -73 19 -209 19 -252 0z"/>
<path d="M3895 2919 c-11 -7 -23 -17 -27 -23 -12 -18 -9 -71 5 -90 12 -17 20
-16 160 1 81 10 149 23 150 28 1 6 -32 27 -73 48 -83 42 -178 58 -215 36z"/>
<path d="M4225 2783 c-16 -2 -40 -6 -52 -8 l-21 -5 19 -55 c10 -30 19 -65 19
-78 0 -23 1 -23 67 -15 37 5 69 11 71 12 1 2 -3 37 -9 79 -13 85 -8 81 -94 70z"/>
<path d="M7509 2728 c0 -7 -6 -49 -13 -93 -8 -44 -12 -82 -10 -84 5 -5 158
-30 162 -26 3 3 32 172 32 186 0 7 -112 29 -148 29 -12 0 -22 -6 -23 -12z"/>
<path d="M6880 2670 c-46 -46 -11 -140 54 -140 32 0 72 37 82 76 6 23 2 32
-25 56 -37 33 -82 37 -111 8z"/>
</g>
</svg>
